<svg version="1.1" xmlns="http://www.w3.org/2000/svg" xmlns:xlink="http://www.w3.org/1999/xlink" width="540" height="405"><defs/><g><text fill="#eeeeee" stroke="none" font-family="Arial" font-size="24px" font-style="normal" font-weight="normal" text-decoration="none" x="0" y="0">UNREGISTERED</text><text fill="#eeeeee" stroke="none" font-family="Arial" font-size="24px" font-style="normal" font-weight="normal" text-decoration="none" x="0" y="30">UNREGISTERED</text><text fill="#eeeeee" stroke="none" font-family="Arial" font-size="24px" font-style="normal" font-weight="normal" text-decoration="none" x="0" y="60">UNREGISTERED</text><text fill="#eeeeee" stroke="none" font-family="Arial" font-size="24px" font-style="normal" font-weight="normal" text-decoration="none" x="0" y="90">UNREGISTERED</text><text fill="#eeeeee" stroke="none" font-family="Arial" font-size="24px" font-style="normal" font-weight="normal" text-decoration="none" x="0" y="120">UNREGISTERED</text><text fill="#eeeeee" stroke="none" font-family="Arial" font-size="24px" font-style="normal" font-weight="normal" text-decoration="none" x="0" y="150">UNREGISTERED</text><text fill="#eeeeee" stroke="none" font-family="Arial" font-size="24px" font-style="normal" font-weight="normal" text-decoration="none" x="0" y="180">UNREGISTERED</text><text fill="#eeeeee" stroke="none" font-family="Arial" font-size="24px" font-style="normal" font-weight="normal" text-decoration="none" x="0" y="210">UNREGISTERED</text><text fill="#eeeeee" stroke="none" font-family="Arial" font-size="24px" font-style="normal" font-weight="normal" text-decoration="none" x="0" y="240">UNREGISTERED</text><text fill="#eeeeee" stroke="none" font-family="Arial" font-size="24px" font-style="normal" font-weight="normal" text-decoration="none" x="0" y="270">UNREGISTERED</text><text fill="#eeeeee" stroke="none" font-family="Arial" font-size="24px" font-style="normal" font-weight="normal" text-decoration="none" x="0" y="300">UNREGISTERED</text><text fill="#eeeeee" stroke="none" font-family="Arial" font-size="24px" font-style="normal" font-weight="normal" text-decoration="none" x="0" y="330">UNREGISTERED</text><text fill="#eeeeee" stroke="none" font-family="Arial" font-size="24px" font-style="normal" font-weight="normal" text-decoration="none" x="0" y="360">UNREGISTERED</text><text fill="#eeeeee" stroke="none" font-family="Arial" font-size="24px" font-style="normal" font-weight="normal" text-decoration="none" x="0" y="390">UNREGISTERED</text><text fill="#eeeeee" stroke="none" font-family="Arial" font-size="24px" font-style="normal" font-weight="normal" text-decoration="none" x="200" y="0">UNREGISTERED</text><text fill="#eeeeee" stroke="none" font-family="Arial" font-size="24px" font-style="normal" font-weight="normal" text-decoration="none" x="200" y="30">UNREGISTERED</text><text fill="#eeeeee" stroke="none" font-family="Arial" font-size="24px" font-style="normal" font-weight="normal" text-decoration="none" x="200" y="60">UNREGISTERED</text><text fill="#eeeeee" stroke="none" font-family="Arial" font-size="24px" font-style="normal" font-weight="normal" text-decoration="none" x="200" y="90">UNREGISTERED</text><text fill="#eeeeee" stroke="none" font-family="Arial" font-size="24px" font-style="normal" font-weight="normal" text-decoration="none" x="200" y="120">UNREGISTERED</text><text fill="#eeeeee" stroke="none" font-family="Arial" font-size="24px" font-style="normal" font-weight="normal" text-decoration="none" x="200" y="150">UNREGISTERED</text><text fill="#eeeeee" stroke="none" font-family="Arial" font-size="24px" font-style="normal" font-weight="normal" text-decoration="none" x="200" y="180">UNREGISTERED</text><text fill="#eeeeee" stroke="none" font-family="Arial" font-size="24px" font-style="normal" font-weight="normal" text-decoration="none" x="200" y="210">UNREGISTERED</text><text fill="#eeeeee" stroke="none" font-family="Arial" font-size="24px" font-style="normal" font-weight="normal" text-decoration="none" x="200" y="240">UNREGISTERED</text><text fill="#eeeeee" stroke="none" font-family="Arial" font-size="24px" font-style="normal" font-weight="normal" text-decoration="none" x="200" y="270">UNREGISTERED</text><text fill="#eeeeee" stroke="none" font-family="Arial" font-size="24px" font-style="normal" font-weight="normal" text-decoration="none" x="200" y="300">UNREGISTERED</text><text fill="#eeeeee" stroke="none" font-family="Arial" font-size="24px" font-style="normal" font-weight="normal" text-decoration="none" x="200" y="330">UNREGISTERED</text><text fill="#eeeeee" stroke="none" font-family="Arial" font-size="24px" font-style="normal" font-weight="normal" text-decoration="none" x="200" y="360">UNREGISTERED</text><text fill="#eeeeee" stroke="none" font-family="Arial" font-size="24px" font-style="normal" font-weight="normal" text-decoration="none" x="200" y="390">UNREGISTERED</text><text fill="#eeeeee" stroke="none" font-family="Arial" font-size="24px" font-style="normal" font-weight="normal" text-decoration="none" x="400" y="0">UNREGISTERED</text><text fill="#eeeeee" stroke="none" font-family="Arial" font-size="24px" font-style="normal" font-weight="normal" text-decoration="none" x="400" y="30">UNREGISTERED</text><text fill="#eeeeee" stroke="none" font-family="Arial" font-size="24px" font-style="normal" font-weight="normal" text-decoration="none" x="400" y="60">UNREGISTERED</text><text fill="#eeeeee" stroke="none" font-family="Arial" font-size="24px" font-style="normal" font-weight="normal" text-decoration="none" x="400" y="90">UNREGISTERED</text><text fill="#eeeeee" stroke="none" font-family="Arial" font-size="24px" font-style="normal" font-weight="normal" text-decoration="none" x="400" y="120">UNREGISTERED</text><text fill="#eeeeee" stroke="none" font-family="Arial" font-size="24px" font-style="normal" font-weight="normal" text-decoration="none" x="400" y="150">UNREGISTERED</text><text fill="#eeeeee" stroke="none" font-family="Arial" font-size="24px" font-style="normal" font-weight="normal" text-decoration="none" x="400" y="180">UNREGISTERED</text><text fill="#eeeeee" stroke="none" font-family="Arial" font-size="24px" font-style="normal" font-weight="normal" text-decoration="none" x="400" y="210">UNREGISTERED</text><text fill="#eeeeee" stroke="none" font-family="Arial" font-size="24px" font-style="normal" font-weight="normal" text-decoration="none" x="400" y="240">UNREGISTERED</text><text fill="#eeeeee" stroke="none" font-family="Arial" font-size="24px" font-style="normal" font-weight="normal" text-decoration="none" x="400" y="270">UNREGISTERED</text><text fill="#eeeeee" stroke="none" font-family="Arial" font-size="24px" font-style="normal" font-weight="normal" text-decoration="none" x="400" y="300">UNREGISTERED</text><text fill="#eeeeee" stroke="none" font-family="Arial" font-size="24px" font-style="normal" font-weight="normal" text-decoration="none" x="400" y="330">UNREGISTERED</text><text fill="#eeeeee" stroke="none" font-family="Arial" font-size="24px" font-style="normal" font-weight="normal" text-decoration="none" x="400" y="360">UNREGISTERED</text><text fill="#eeeeee" stroke="none" font-family="Arial" font-size="24px" font-style="normal" font-weight="normal" text-decoration="none" x="400" y="390">UNREGISTERED</text><g transform="translate(-30,-38) scale(1,1)"><rect fill="#C0C0C0" stroke="none" x="47" y="55" width="104" height="41" opacity="0.2"/></g><g transform="translate(-30,-38) scale(1,1)"><rect fill="#ffffff" stroke="none" x="40" y="48" width="104" height="41"/></g><g transform="translate(-30,-38) scale(1,1)"><path fill="none" stroke="#000000" d="M 40 48 L 144 48 L 144 89 L 40 89 L 40 48 Z Z" stroke-miterlimit="10"/></g><g transform="translate(-30,-38) scale(1,1)"><path fill="none" stroke="#000000" d="M 40 70 L 144 70" stroke-miterlimit="10"/></g><g transform="translate(-30,-38) scale(1,1)"><path fill="none" stroke="#000000" d="M 40 80 L 144 80" stroke-miterlimit="10"/></g><g transform="translate(-30,-38) scale(1,1)"><g><path fill="none" stroke="none"/><text fill="#000000" stroke="none" font-family="Arial" font-size="10px" font-style="normal" font-weight="bold" text-decoration="none" x="68.943359375" y="63">USUARIO</text></g></g><g transform="translate(-30,-38) scale(1,1)"><rect fill="#C0C0C0" stroke="none" x="222" y="55" width="104" height="41" opacity="0.2"/></g><g transform="translate(-30,-38) scale(1,1)"><rect fill="#ffffff" stroke="none" x="215" y="48" width="104" height="41"/></g><g transform="translate(-30,-38) scale(1,1)"><path fill="none" stroke="#000000" d="M 215 48 L 319 48 L 319 89 L 215 89 L 215 48 Z Z" stroke-miterlimit="10"/></g><g transform="translate(-30,-38) scale(1,1)"><path fill="none" stroke="#000000" d="M 215 70 L 319 70" stroke-miterlimit="10"/></g><g transform="translate(-30,-38) scale(1,1)"><path fill="none" stroke="#000000" d="M 215 80 L 319 80" stroke-miterlimit="10"/></g><g transform="translate(-30,-38) scale(1,1)"><g><path fill="none" stroke="none"/><text fill="#000000" stroke="none" font-family="Arial" font-size="10px" font-style="normal" font-weight="bold" text-decoration="none" x="234.2216796875" y="63">CREDENCIAL</text></g></g><g transform="translate(-30,-38) scale(1,1)"><rect fill="#C0C0C0" stroke="none" x="270" y="295" width="104" height="41" opacity="0.2"/></g><g transform="translate(-30,-38) scale(1,1)"><rect fill="#ffffff" stroke="none" x="263" y="288" width="104" height="41"/></g><g transform="translate(-30,-38) scale(1,1)"><path fill="none" stroke="#000000" d="M 263 288 L 367 288 L 367 329 L 263 329 L 263 288 Z Z" stroke-miterlimit="10"/></g><g transform="translate(-30,-38) scale(1,1)"><path fill="none" stroke="#000000" d="M 263 310 L 367 310" stroke-miterlimit="10"/></g><g transform="translate(-30,-38) scale(1,1)"><path fill="none" stroke="#000000" d="M 263 320 L 367 320" stroke-miterlimit="10"/></g><g transform="translate(-30,-38) scale(1,1)"><g><path fill="none" stroke="none"/><text fill="#000000" stroke="none" font-family="Arial" font-size="10px" font-style="normal" font-weight="bold" text-decoration="none" x="295.830078125" y="303">PEDIDO</text></g></g><g transform="translate(-30,-38) scale(1,1)"><rect fill="#C0C0C0" stroke="none" x="270" y="399" width="104" height="41" opacity="0.2"/></g><g transform="translate(-30,-38) scale(1,1)"><rect fill="#ffffff" stroke="none" x="263" y="392" width="104" height="41"/></g><g transform="translate(-30,-38) scale(1,1)"><path fill="none" stroke="#000000" d="M 263 392 L 367 392 L 367 433 L 263 433 L 263 392 Z Z" stroke-miterlimit="10"/></g><g transform="translate(-30,-38) scale(1,1)"><path fill="none" stroke="#000000" d="M 263 414 L 367 414" stroke-miterlimit="10"/></g><g transform="translate(-30,-38) scale(1,1)"><path fill="none" stroke="#000000" d="M 263 424 L 367 424" stroke-miterlimit="10"/></g><g transform="translate(-30,-38) scale(1,1)"><g><path fill="none" stroke="none"/><text fill="#000000" stroke="none" font-family="Arial" font-size="10px" font-style="normal" font-weight="bold" text-decoration="none" x="286.4794921875" y="407">PRODUCTO</text></g></g><g transform="translate(-30,-38) scale(1,1)"><rect fill="#C0C0C0" stroke="none" x="463" y="399" width="104" height="41" opacity="0.2"/></g><g transform="translate(-30,-38) scale(1,1)"><rect fill="#ffffff" stroke="none" x="456" y="392" width="104" height="41"/></g><g transform="translate(-30,-38) scale(1,1)"><path fill="none" stroke="#000000" d="M 456 392 L 560 392 L 560 433 L 456 433 L 456 392 Z Z" stroke-miterlimit="10"/></g><g transform="translate(-30,-38) scale(1,1)"><path fill="none" stroke="#000000" d="M 456 414 L 560 414" stroke-miterlimit="10"/></g><g transform="translate(-30,-38) scale(1,1)"><path fill="none" stroke="#000000" d="M 456 424 L 560 424" stroke-miterlimit="10"/></g><g transform="translate(-30,-38) scale(1,1)"><g><path fill="none" stroke="none"/><text fill="#000000" stroke="none" font-family="Arial" font-size="10px" font-style="normal" font-weight="bold" text-decoration="none" x="485.7783203125" y="407">COMPRA</text></g></g><g transform="translate(-30,-38) scale(1,1)"><path fill="none" stroke="#000000" d="M 145 68 L 214 68" stroke-miterlimit="10"/></g><g transform="translate(-30,-38) scale(1,1)"><g><path fill="none" stroke="none"/><text fill="#000000" stroke="none" font-family="Arial" font-size="10px" font-style="normal" font-weight="normal" text-decoration="none" x="151.5" y="63">1</text></g></g><g transform="translate(-30,-38) scale(1,1)"><g><path fill="none" stroke="none"/><text fill="#000000" stroke="none" font-family="Arial" font-size="10px" font-style="normal" font-weight="normal" text-decoration="none" x="199.5" y="82">1</text></g></g><g transform="translate(-30,-38) scale(1,1)"><path fill="none" stroke="#000000" d="M 315 330 L 315 391" stroke-miterlimit="10"/></g><g transform="translate(-30,-38) scale(1,1)"><g><path fill="none" stroke="none"/><text fill="#000000" stroke="none" font-family="Arial" font-size="10px" font-style="normal" font-weight="normal" text-decoration="none" x="295.3349609375" y="343">0..*</text></g></g><g transform="translate(-30,-38) scale(1,1)"><g><path fill="none" stroke="none"/><text fill="#000000" stroke="none" font-family="Arial" font-size="10px" font-style="normal" font-weight="normal" text-decoration="none" x="319.5" y="383">1..*</text></g></g><g transform="translate(-30,-38) scale(1,1)"><path fill="none" stroke="#000000" d="M 368 412 L 455 412" stroke-miterlimit="10"/></g><g transform="translate(-30,-38) scale(1,1)"><g><path fill="none" stroke="none"/><text fill="#000000" stroke="none" font-family="Arial" font-size="10px" font-style="normal" font-weight="normal" text-decoration="none" x="375.5" y="407">1..*</text></g></g><g transform="translate(-30,-38) scale(1,1)"><g><path fill="none" stroke="none"/><text fill="#000000" stroke="none" font-family="Arial" font-size="10px" font-style="normal" font-weight="normal" text-decoration="none" x="431.5" y="426">0..*</text></g></g><g transform="translate(-30,-38) scale(1,1)"><rect fill="#C0C0C0" stroke="none" x="359" y="175" width="104" height="41" opacity="0.2"/></g><g transform="translate(-30,-38) scale(1,1)"><rect fill="#ffffff" stroke="none" x="352" y="168" width="104" height="41"/></g><g transform="translate(-30,-38) scale(1,1)"><path fill="none" stroke="#000000" d="M 352 168 L 456 168 L 456 209 L 352 209 L 352 168 Z Z" stroke-miterlimit="10"/></g><g transform="translate(-30,-38) scale(1,1)"><path fill="none" stroke="#000000" d="M 352 190 L 456 190" stroke-miterlimit="10"/></g><g transform="translate(-30,-38) scale(1,1)"><path fill="none" stroke="#000000" d="M 352 200 L 456 200" stroke-miterlimit="10"/></g><g transform="translate(-30,-38) scale(1,1)"><g><path fill="none" stroke="none"/><text fill="#000000" stroke="none" font-family="Arial" font-size="10px" font-style="normal" font-weight="bold" text-decoration="none" x="382.61083984375" y="183">CLIENTE</text></g></g><g transform="translate(-30,-38) scale(1,1)"><rect fill="#C0C0C0" stroke="none" x="183" y="175" width="104" height="41" opacity="0.2"/></g><g transform="translate(-30,-38) scale(1,1)"><rect fill="#ffffff" stroke="none" x="176" y="168" width="104" height="41"/></g><g transform="translate(-30,-38) scale(1,1)"><path fill="none" stroke="#000000" d="M 176 168 L 280 168 L 280 209 L 176 209 L 176 168 Z Z" stroke-miterlimit="10"/></g><g transform="translate(-30,-38) scale(1,1)"><path fill="none" stroke="#000000" d="M 176 190 L 280 190" stroke-miterlimit="10"/></g><g transform="translate(-30,-38) scale(1,1)"><path fill="none" stroke="#000000" d="M 176 200 L 280 200" stroke-miterlimit="10"/></g><g transform="translate(-30,-38) scale(1,1)"><g><path fill="none" stroke="none"/><text fill="#000000" stroke="none" font-family="Arial" font-size="10px" font-style="normal" font-weight="bold" text-decoration="none" x="199.66259765625" y="183">VENDEDOR</text></g></g><g transform="translate(-30,-38) scale(1,1)"><path fill="none" stroke="#000000" d="M 235 167 L 260 90" stroke-miterlimit="10"/></g><g transform="translate(-30,-38) scale(1,1)"><g><path fill="none" stroke="none"/><text fill="#000000" stroke="none" font-family="Arial" font-size="10px" font-style="normal" font-weight="normal" text-decoration="none" x="246.5" y="152">1</text></g></g><g transform="translate(-30,-38) scale(1,1)"><g><path fill="none" stroke="none"/><text fill="#000000" stroke="none" font-family="Arial" font-size="10px" font-style="normal" font-weight="normal" text-decoration="none" x="239.5" y="110">1</text></g></g><g transform="translate(-30,-38) scale(1,1)"><path fill="none" stroke="#000000" d="M 380 167 L 292 90" stroke-miterlimit="10"/></g><g transform="translate(-30,-38) scale(1,1)"><g><path fill="none" stroke="none"/><text fill="#000000" stroke="none" font-family="Arial" font-size="10px" font-style="normal" font-weight="normal" text-decoration="none" x="375.5" y="157">1</text></g></g><g transform="translate(-30,-38) scale(1,1)"><g><path fill="none" stroke="none"/><text fill="#000000" stroke="none" font-family="Arial" font-size="10px" font-style="normal" font-weight="normal" text-decoration="none" x="286.5" y="103">1</text></g></g><g transform="translate(-30,-38) scale(1,1)"><path fill="none" stroke="#000000" d="M 244 210 L 300 287" stroke-miterlimit="10"/></g><g transform="translate(-30,-38) scale(1,1)"><g><path fill="none" stroke="none"/><text fill="#000000" stroke="none" font-family="Arial" font-size="10px" font-style="normal" font-weight="normal" text-decoration="none" x="262.5" y="222">0..1</text></g></g><g transform="translate(-30,-38) scale(1,1)"><g><path fill="none" stroke="none"/><text fill="#000000" stroke="none" font-family="Arial" font-size="10px" font-style="normal" font-weight="normal" text-decoration="none" x="263.5" y="276">0..*</text></g></g><g transform="translate(-30,-38) scale(1,1)"><path fill="none" stroke="#000000" d="M 388 210 L 331 287" stroke-miterlimit="10"/></g><g transform="translate(-30,-38) scale(1,1)"><g><path fill="none" stroke="none"/><text fill="#000000" stroke="none" font-family="Arial" font-size="10px" font-style="normal" font-weight="normal" text-decoration="none" x="362.5" y="222">1</text></g></g><g transform="translate(-30,-38) scale(1,1)"><g><path fill="none" stroke="none"/><text fill="#000000" stroke="none" font-family="Arial" font-size="10px" font-style="normal" font-weight="normal" text-decoration="none" x="351.5" y="279">1..*</text></g></g><g transform="translate(-30,-38) scale(1,1)"><rect fill="#C0C0C0" stroke="none" x="47" y="175" width="104" height="41" opacity="0.2"/></g><g transform="translate(-30,-38) scale(1,1)"><rect fill="#ffffff" stroke="none" x="40" y="168" width="104" height="41"/></g><g transform="translate(-30,-38) scale(1,1)"><path fill="none" stroke="#000000" d="M 40 168 L 144 168 L 144 209 L 40 209 L 40 168 Z Z" stroke-miterlimit="10"/></g><g transform="translate(-30,-38) scale(1,1)"><path fill="none" stroke="#000000" d="M 40 190 L 144 190" stroke-miterlimit="10"/></g><g transform="translate(-30,-38) scale(1,1)"><path fill="none" stroke="#000000" d="M 40 200 L 144 200" stroke-miterlimit="10"/></g><g transform="translate(-30,-38) scale(1,1)"><g><path fill="none" stroke="none"/><text fill="#000000" stroke="none" font-family="Arial" font-size="10px" font-style="normal" font-weight="bold" text-decoration="none" x="67.82763671875" y="183">MENSAJE</text></g></g><g transform="translate(-30,-38) scale(1,1)"><path fill="none" stroke="#000000" d="M 92 90 L 92 167" stroke-miterlimit="10"/></g><g transform="translate(-30,-38) scale(1,1)"><g><path fill="none" stroke="none"/><text fill="#000000" stroke="none" font-family="Arial" font-size="10px" font-style="normal" font-weight="normal" text-decoration="none" x="76.5" y="103">1</text></g></g><g transform="translate(-30,-38) scale(1,1)"><g><path fill="none" stroke="none"/><text fill="#000000" stroke="none" font-family="Arial" font-size="10px" font-style="normal" font-weight="normal" text-decoration="none" x="95.5" y="159">0..*</text></g></g></g></svg>