<svg version="1.1" xmlns="http://www.w3.org/2000/svg" xmlns:xlink="http://www.w3.org/1999/xlink" width="475" height="595"><defs/><g><text fill="#eeeeee" stroke="none" font-family="Arial" font-size="24px" font-style="normal" font-weight="normal" text-decoration="none" x="0" y="0">UNREGISTERED</text><text fill="#eeeeee" stroke="none" font-family="Arial" font-size="24px" font-style="normal" font-weight="normal" text-decoration="none" x="0" y="30">UNREGISTERED</text><text fill="#eeeeee" stroke="none" font-family="Arial" font-size="24px" font-style="normal" font-weight="normal" text-decoration="none" x="0" y="60">UNREGISTERED</text><text fill="#eeeeee" stroke="none" font-family="Arial" font-size="24px" font-style="normal" font-weight="normal" text-decoration="none" x="0" y="90">UNREGISTERED</text><text fill="#eeeeee" stroke="none" font-family="Arial" font-size="24px" font-style="normal" font-weight="normal" text-decoration="none" x="0" y="120">UNREGISTERED</text><text fill="#eeeeee" stroke="none" font-family="Arial" font-size="24px" font-style="normal" font-weight="normal" text-decoration="none" x="0" y="150">UNREGISTERED</text><text fill="#eeeeee" stroke="none" font-family="Arial" font-size="24px" font-style="normal" font-weight="normal" text-decoration="none" x="0" y="180">UNREGISTERED</text><text fill="#eeeeee" stroke="none" font-family="Arial" font-size="24px" font-style="normal" font-weight="normal" text-decoration="none" x="0" y="210">UNREGISTERED</text><text fill="#eeeeee" stroke="none" font-family="Arial" font-size="24px" font-style="normal" font-weight="normal" text-decoration="none" x="0" y="240">UNREGISTERED</text><text fill="#eeeeee" stroke="none" font-family="Arial" font-size="24px" font-style="normal" font-weight="normal" text-decoration="none" x="0" y="270">UNREGISTERED</text><text fill="#eeeeee" stroke="none" font-family="Arial" font-size="24px" font-style="normal" font-weight="normal" text-decoration="none" x="0" y="300">UNREGISTERED</text><text fill="#eeeeee" stroke="none" font-family="Arial" font-size="24px" font-style="normal" font-weight="normal" text-decoration="none" x="0" y="330">UNREGISTERED</text><text fill="#eeeeee" stroke="none" font-family="Arial" font-size="24px" font-style="normal" font-weight="normal" text-decoration="none" x="0" y="360">UNREGISTERED</text><text fill="#eeeeee" stroke="none" font-family="Arial" font-size="24px" font-style="normal" font-weight="normal" text-decoration="none" x="0" y="390">UNREGISTERED</text><text fill="#eeeeee" stroke="none" font-family="Arial" font-size="24px" font-style="normal" font-weight="normal" text-decoration="none" x="0" y="420">UNREGISTERED</text><text fill="#eeeeee" stroke="none" font-family="Arial" font-size="24px" font-style="normal" font-weight="normal" text-decoration="none" x="0" y="450">UNREGISTERED</text><text fill="#eeeeee" stroke="none" font-family="Arial" font-size="24px" font-style="normal" font-weight="normal" text-decoration="none" x="0" y="480">UNREGISTERED</text><text fill="#eeeeee" stroke="none" font-family="Arial" font-size="24px" font-style="normal" font-weight="normal" text-decoration="none" x="0" y="510">UNREGISTERED</text><text fill="#eeeeee" stroke="none" font-family="Arial" font-size="24px" font-style="normal" font-weight="normal" text-decoration="none" x="0" y="540">UNREGISTERED</text><text fill="#eeeeee" stroke="none" font-family="Arial" font-size="24px" font-style="normal" font-weight="normal" text-decoration="none" x="0" y="570">UNREGISTERED</text><text fill="#eeeeee" stroke="none" font-family="Arial" font-size="24px" font-style="normal" font-weight="normal" text-decoration="none" x="200" y="0">UNREGISTERED</text><text fill="#eeeeee" stroke="none" font-family="Arial" font-size="24px" font-style="normal" font-weight="normal" text-decoration="none" x="200" y="30">UNREGISTERED</text><text fill="#eeeeee" stroke="none" font-family="Arial" font-size="24px" font-style="normal" font-weight="normal" text-decoration="none" x="200" y="60">UNREGISTERED</text><text fill="#eeeeee" stroke="none" font-family="Arial" font-size="24px" font-style="normal" font-weight="normal" text-decoration="none" x="200" y="90">UNREGISTERED</text><text fill="#eeeeee" stroke="none" font-family="Arial" font-size="24px" font-style="normal" font-weight="normal" text-decoration="none" x="200" y="120">UNREGISTERED</text><text fill="#eeeeee" stroke="none" font-family="Arial" font-size="24px" font-style="normal" font-weight="normal" text-decoration="none" x="200" y="150">UNREGISTERED</text><text fill="#eeeeee" stroke="none" font-family="Arial" font-size="24px" font-style="normal" font-weight="normal" text-decoration="none" x="200" y="180">UNREGISTERED</text><text fill="#eeeeee" stroke="none" font-family="Arial" font-size="24px" font-style="normal" font-weight="normal" text-decoration="none" x="200" y="210">UNREGISTERED</text><text fill="#eeeeee" stroke="none" font-family="Arial" font-size="24px" font-style="normal" font-weight="normal" text-decoration="none" x="200" y="240">UNREGISTERED</text><text fill="#eeeeee" stroke="none" font-family="Arial" font-size="24px" font-style="normal" font-weight="normal" text-decoration="none" x="200" y="270">UNREGISTERED</text><text fill="#eeeeee" stroke="none" font-family="Arial" font-size="24px" font-style="normal" font-weight="normal" text-decoration="none" x="200" y="300">UNREGISTERED</text><text fill="#eeeeee" stroke="none" font-family="Arial" font-size="24px" font-style="normal" font-weight="normal" text-decoration="none" x="200" y="330">UNREGISTERED</text><text fill="#eeeeee" stroke="none" font-family="Arial" font-size="24px" font-style="normal" font-weight="normal" text-decoration="none" x="200" y="360">UNREGISTERED</text><text fill="#eeeeee" stroke="none" font-family="Arial" font-size="24px" font-style="normal" font-weight="normal" text-decoration="none" x="200" y="390">UNREGISTERED</text><text fill="#eeeeee" stroke="none" font-family="Arial" font-size="24px" font-style="normal" font-weight="normal" text-decoration="none" x="200" y="420">UNREGISTERED</text><text fill="#eeeeee" stroke="none" font-family="Arial" font-size="24px" font-style="normal" font-weight="normal" text-decoration="none" x="200" y="450">UNREGISTERED</text><text fill="#eeeeee" stroke="none" font-family="Arial" font-size="24px" font-style="normal" font-weight="normal" text-decoration="none" x="200" y="480">UNREGISTERED</text><text fill="#eeeeee" stroke="none" font-family="Arial" font-size="24px" font-style="normal" font-weight="normal" text-decoration="none" x="200" y="510">UNREGISTERED</text><text fill="#eeeeee" stroke="none" font-family="Arial" font-size="24px" font-style="normal" font-weight="normal" text-decoration="none" x="200" y="540">UNREGISTERED</text><text fill="#eeeeee" stroke="none" font-family="Arial" font-size="24px" font-style="normal" font-weight="normal" text-decoration="none" x="200" y="570">UNREGISTERED</text><text fill="#eeeeee" stroke="none" font-family="Arial" font-size="24px" font-style="normal" font-weight="normal" text-decoration="none" x="400" y="0">UNREGISTERED</text><text fill="#eeeeee" stroke="none" font-family="Arial" font-size="24px" font-style="normal" font-weight="normal" text-decoration="none" x="400" y="30">UNREGISTERED</text><text fill="#eeeeee" stroke="none" font-family="Arial" font-size="24px" font-style="normal" font-weight="normal" text-decoration="none" x="400" y="60">UNREGISTERED</text><text fill="#eeeeee" stroke="none" font-family="Arial" font-size="24px" font-style="normal" font-weight="normal" text-decoration="none" x="400" y="90">UNREGISTERED</text><text fill="#eeeeee" stroke="none" font-family="Arial" font-size="24px" font-style="normal" font-weight="normal" text-decoration="none" x="400" y="120">UNREGISTERED</text><text fill="#eeeeee" stroke="none" font-family="Arial" font-size="24px" font-style="normal" font-weight="normal" text-decoration="none" x="400" y="150">UNREGISTERED</text><text fill="#eeeeee" stroke="none" font-family="Arial" font-size="24px" font-style="normal" font-weight="normal" text-decoration="none" x="400" y="180">UNREGISTERED</text><text fill="#eeeeee" stroke="none" font-family="Arial" font-size="24px" font-style="normal" font-weight="normal" text-decoration="none" x="400" y="210">UNREGISTERED</text><text fill="#eeeeee" stroke="none" font-family="Arial" font-size="24px" font-style="normal" font-weight="normal" text-decoration="none" x="400" y="240">UNREGISTERED</text><text fill="#eeeeee" stroke="none" font-family="Arial" font-size="24px" font-style="normal" font-weight="normal" text-decoration="none" x="400" y="270">UNREGISTERED</text><text fill="#eeeeee" stroke="none" font-family="Arial" font-size="24px" font-style="normal" font-weight="normal" text-decoration="none" x="400" y="300">UNREGISTERED</text><text fill="#eeeeee" stroke="none" font-family="Arial" font-size="24px" font-style="normal" font-weight="normal" text-decoration="none" x="400" y="330">UNREGISTERED</text><text fill="#eeeeee" stroke="none" font-family="Arial" font-size="24px" font-style="normal" font-weight="normal" text-decoration="none" x="400" y="360">UNREGISTERED</text><text fill="#eeeeee" stroke="none" font-family="Arial" font-size="24px" font-style="normal" font-weight="normal" text-decoration="none" x="400" y="390">UNREGISTERED</text><text fill="#eeeeee" stroke="none" font-family="Arial" font-size="24px" font-style="normal" font-weight="normal" text-decoration="none" x="400" y="420">UNREGISTERED</text><text fill="#eeeeee" stroke="none" font-family="Arial" font-size="24px" font-style="normal" font-weight="normal" text-decoration="none" x="400" y="450">UNREGISTERED</text><text fill="#eeeeee" stroke="none" font-family="Arial" font-size="24px" font-style="normal" font-weight="normal" text-decoration="none" x="400" y="480">UNREGISTERED</text><text fill="#eeeeee" stroke="none" font-family="Arial" font-size="24px" font-style="normal" font-weight="normal" text-decoration="none" x="400" y="510">UNREGISTERED</text><text fill="#eeeeee" stroke="none" font-family="Arial" font-size="24px" font-style="normal" font-weight="normal" text-decoration="none" x="400" y="540">UNREGISTERED</text><text fill="#eeeeee" stroke="none" font-family="Arial" font-size="24px" font-style="normal" font-weight="normal" text-decoration="none" x="400" y="570">UNREGISTERED</text><g transform="translate(-102,-102) scale(1,1)"><path fill="none" stroke="#000000" d="M 112 112 L 567 112 L 567 687 L 112 687 L 112 112" stroke-miterlimit="10"/></g><g transform="translate(-102,-102) scale(1,1)"><path fill="#ffffff" stroke="none" d="M 112 112 L 112 131 L 239.7236328125 131 L 249.2236328125 121.5 L 249.2236328125 112 L 112 112"/></g><g transform="translate(-102,-102) scale(1,1)"><path fill="none" stroke="#000000" d="M 112 112 L 112 131 L 239.7236328125 131 L 249.2236328125 121.5 L 249.2236328125 112 L 112 112 L 112 112" stroke-miterlimit="10"/></g><g transform="translate(-102,-102) scale(1,1)"><g><path fill="none" stroke="none"/><text fill="#000000" stroke="none" font-family="Arial" font-size="10px" font-style="normal" font-weight="normal" text-decoration="none" x="133.5615234375" y="125">Module 02 - Messages</text></g></g><g transform="translate(-102,-102) scale(1,1)"><g><path fill="none" stroke="none"/><text fill="#000000" stroke="none" font-family="Arial" font-size="10px" font-style="normal" font-weight="bold" text-decoration="none" x="116.44580078125" y="124">uc</text></g></g><g transform="translate(-102,-102) scale(1,1)"><path fill="#C0C0C0" stroke="none" d="M 271 278.5 C 271 269.9395856 305.697928 263 348.5 263 C 391.302072 263 426 269.9395856 426 278.5 C 426 287.0604144 391.302072 294 348.5 294 C 305.697928 294 271 287.0604144 271 278.5 Z" opacity="0.2"/></g><g transform="translate(-102,-102) scale(1,1)"><path fill="#ffffff" stroke="none" d="M 264 271.5 C 264 262.9395856 298.697928 256 341.5 256 C 384.302072 256 419 262.9395856 419 271.5 C 419 280.0604144 384.302072 287 341.5 287 C 298.697928 287 264 280.0604144 264 271.5 Z"/></g><g transform="translate(-102,-102) scale(1,1)"><path fill="none" stroke="#000000" d="M 264 271.5 C 264 262.9395856 298.697928 256 341.5 256 C 384.302072 256 419 262.9395856 419 271.5 C 419 280.0604144 384.302072 287 341.5 287 C 298.697928 287 264 280.0604144 264 271.5 Z" stroke-miterlimit="10"/></g><g transform="translate(-102,-102) scale(1,1)"><g><path fill="none" stroke="none"/><text fill="#000000" stroke="none" font-family="Arial" font-size="10px" font-style="normal" font-weight="bold" text-decoration="none" x="291.19482421875" y="275.5">CU15-createMessage</text></g></g><g transform="translate(-102,-102) scale(1,1)"><path fill="#C0C0C0" stroke="none" d="M 279 342.5 C 279 333.9395856 311.0116368 327 350.5 327 C 389.9883632 327 422 333.9395856 422 342.5 C 422 351.0604144 389.9883632 358 350.5 358 C 311.0116368 358 279 351.0604144 279 342.5 Z" opacity="0.2"/></g><g transform="translate(-102,-102) scale(1,1)"><path fill="#ffffff" stroke="none" d="M 272 335.5 C 272 326.9395856 304.0116368 320 343.5 320 C 382.9883632 320 415 326.9395856 415 335.5 C 415 344.0604144 382.9883632 351 343.5 351 C 304.0116368 351 272 344.0604144 272 335.5 Z"/></g><g transform="translate(-102,-102) scale(1,1)"><path fill="none" stroke="#000000" d="M 272 335.5 C 272 326.9395856 304.0116368 320 343.5 320 C 382.9883632 320 415 326.9395856 415 335.5 C 415 344.0604144 382.9883632 351 343.5 351 C 304.0116368 351 272 344.0604144 272 335.5 Z" stroke-miterlimit="10"/></g><g transform="translate(-102,-102) scale(1,1)"><g><path fill="none" stroke="none"/><text fill="#000000" stroke="none" font-family="Arial" font-size="10px" font-style="normal" font-weight="bold" text-decoration="none" x="297.3671875" y="339.5">CU16-readMessage</text></g></g><g transform="translate(-102,-102) scale(1,1)"><path fill="#C0C0C0" stroke="none" d="M 271 390.5 C 271 381.9395856 307.4887888 375 352.5 375 C 397.5112112 375 434 381.9395856 434 390.5 C 434 399.0604144 397.5112112 406 352.5 406 C 307.4887888 406 271 399.0604144 271 390.5 Z" opacity="0.2"/></g><g transform="translate(-102,-102) scale(1,1)"><path fill="#ffffff" stroke="none" d="M 264 383.5 C 264 374.9395856 300.4887888 368 345.5 368 C 390.5112112 368 427 374.9395856 427 383.5 C 427 392.0604144 390.5112112 399 345.5 399 C 300.4887888 399 264 392.0604144 264 383.5 Z"/></g><g transform="translate(-102,-102) scale(1,1)"><path fill="none" stroke="#000000" d="M 264 383.5 C 264 374.9395856 300.4887888 368 345.5 368 C 390.5112112 368 427 374.9395856 427 383.5 C 427 392.0604144 390.5112112 399 345.5 399 C 300.4887888 399 264 392.0604144 264 383.5 Z" stroke-miterlimit="10"/></g><g transform="translate(-102,-102) scale(1,1)"><g><path fill="none" stroke="none"/><text fill="#000000" stroke="none" font-family="Arial" font-size="10px" font-style="normal" font-weight="bold" text-decoration="none" x="292.42138671875" y="387.5">CU17-readMyMessage</text></g></g><g transform="translate(-102,-102) scale(1,1)"><path fill="#C0C0C0" stroke="none" d="M 271 446.5 C 271 437.9395856 305.4740704 431 348 431 C 390.5259296 431 425 437.9395856 425 446.5 C 425 455.0604144 390.5259296 462 348 462 C 305.4740704 462 271 455.0604144 271 446.5 Z" opacity="0.2"/></g><g transform="translate(-102,-102) scale(1,1)"><path fill="#ffffff" stroke="none" d="M 264 439.5 C 264 430.9395856 298.4740704 424 341 424 C 383.5259296 424 418 430.9395856 418 439.5 C 418 448.0604144 383.5259296 455 341 455 C 298.4740704 455 264 448.0604144 264 439.5 Z"/></g><g transform="translate(-102,-102) scale(1,1)"><path fill="none" stroke="#000000" d="M 264 439.5 C 264 430.9395856 298.4740704 424 341 424 C 383.5259296 424 418 430.9395856 418 439.5 C 418 448.0604144 383.5259296 455 341 455 C 298.4740704 455 264 448.0604144 264 439.5 Z" stroke-miterlimit="10"/></g><g transform="translate(-102,-102) scale(1,1)"><g><path fill="none" stroke="none"/><text fill="#000000" stroke="none" font-family="Arial" font-size="10px" font-style="normal" font-weight="bold" text-decoration="none" x="290.97802734375" y="443.5">CU18-deleteMessage</text></g></g></g></svg>