<svg version="1.1" xmlns="http://www.w3.org/2000/svg" xmlns:xlink="http://www.w3.org/1999/xlink" width="514" height="540"><defs/><g><text fill="#eeeeee" stroke="none" font-family="Arial" font-size="24px" font-style="normal" font-weight="normal" text-decoration="none" x="0" y="0">UNREGISTERED</text><text fill="#eeeeee" stroke="none" font-family="Arial" font-size="24px" font-style="normal" font-weight="normal" text-decoration="none" x="0" y="30">UNREGISTERED</text><text fill="#eeeeee" stroke="none" font-family="Arial" font-size="24px" font-style="normal" font-weight="normal" text-decoration="none" x="0" y="60">UNREGISTERED</text><text fill="#eeeeee" stroke="none" font-family="Arial" font-size="24px" font-style="normal" font-weight="normal" text-decoration="none" x="0" y="90">UNREGISTERED</text><text fill="#eeeeee" stroke="none" font-family="Arial" font-size="24px" font-style="normal" font-weight="normal" text-decoration="none" x="0" y="120">UNREGISTERED</text><text fill="#eeeeee" stroke="none" font-family="Arial" font-size="24px" font-style="normal" font-weight="normal" text-decoration="none" x="0" y="150">UNREGISTERED</text><text fill="#eeeeee" stroke="none" font-family="Arial" font-size="24px" font-style="normal" font-weight="normal" text-decoration="none" x="0" y="180">UNREGISTERED</text><text fill="#eeeeee" stroke="none" font-family="Arial" font-size="24px" font-style="normal" font-weight="normal" text-decoration="none" x="0" y="210">UNREGISTERED</text><text fill="#eeeeee" stroke="none" font-family="Arial" font-size="24px" font-style="normal" font-weight="normal" text-decoration="none" x="0" y="240">UNREGISTERED</text><text fill="#eeeeee" stroke="none" font-family="Arial" font-size="24px" font-style="normal" font-weight="normal" text-decoration="none" x="0" y="270">UNREGISTERED</text><text fill="#eeeeee" stroke="none" font-family="Arial" font-size="24px" font-style="normal" font-weight="normal" text-decoration="none" x="0" y="300">UNREGISTERED</text><text fill="#eeeeee" stroke="none" font-family="Arial" font-size="24px" font-style="normal" font-weight="normal" text-decoration="none" x="0" y="330">UNREGISTERED</text><text fill="#eeeeee" stroke="none" font-family="Arial" font-size="24px" font-style="normal" font-weight="normal" text-decoration="none" x="0" y="360">UNREGISTERED</text><text fill="#eeeeee" stroke="none" font-family="Arial" font-size="24px" font-style="normal" font-weight="normal" text-decoration="none" x="0" y="390">UNREGISTERED</text><text fill="#eeeeee" stroke="none" font-family="Arial" font-size="24px" font-style="normal" font-weight="normal" text-decoration="none" x="0" y="420">UNREGISTERED</text><text fill="#eeeeee" stroke="none" font-family="Arial" font-size="24px" font-style="normal" font-weight="normal" text-decoration="none" x="0" y="450">UNREGISTERED</text><text fill="#eeeeee" stroke="none" font-family="Arial" font-size="24px" font-style="normal" font-weight="normal" text-decoration="none" x="0" y="480">UNREGISTERED</text><text fill="#eeeeee" stroke="none" font-family="Arial" font-size="24px" font-style="normal" font-weight="normal" text-decoration="none" x="0" y="510">UNREGISTERED</text><text fill="#eeeeee" stroke="none" font-family="Arial" font-size="24px" font-style="normal" font-weight="normal" text-decoration="none" x="200" y="0">UNREGISTERED</text><text fill="#eeeeee" stroke="none" font-family="Arial" font-size="24px" font-style="normal" font-weight="normal" text-decoration="none" x="200" y="30">UNREGISTERED</text><text fill="#eeeeee" stroke="none" font-family="Arial" font-size="24px" font-style="normal" font-weight="normal" text-decoration="none" x="200" y="60">UNREGISTERED</text><text fill="#eeeeee" stroke="none" font-family="Arial" font-size="24px" font-style="normal" font-weight="normal" text-decoration="none" x="200" y="90">UNREGISTERED</text><text fill="#eeeeee" stroke="none" font-family="Arial" font-size="24px" font-style="normal" font-weight="normal" text-decoration="none" x="200" y="120">UNREGISTERED</text><text fill="#eeeeee" stroke="none" font-family="Arial" font-size="24px" font-style="normal" font-weight="normal" text-decoration="none" x="200" y="150">UNREGISTERED</text><text fill="#eeeeee" stroke="none" font-family="Arial" font-size="24px" font-style="normal" font-weight="normal" text-decoration="none" x="200" y="180">UNREGISTERED</text><text fill="#eeeeee" stroke="none" font-family="Arial" font-size="24px" font-style="normal" font-weight="normal" text-decoration="none" x="200" y="210">UNREGISTERED</text><text fill="#eeeeee" stroke="none" font-family="Arial" font-size="24px" font-style="normal" font-weight="normal" text-decoration="none" x="200" y="240">UNREGISTERED</text><text fill="#eeeeee" stroke="none" font-family="Arial" font-size="24px" font-style="normal" font-weight="normal" text-decoration="none" x="200" y="270">UNREGISTERED</text><text fill="#eeeeee" stroke="none" font-family="Arial" font-size="24px" font-style="normal" font-weight="normal" text-decoration="none" x="200" y="300">UNREGISTERED</text><text fill="#eeeeee" stroke="none" font-family="Arial" font-size="24px" font-style="normal" font-weight="normal" text-decoration="none" x="200" y="330">UNREGISTERED</text><text fill="#eeeeee" stroke="none" font-family="Arial" font-size="24px" font-style="normal" font-weight="normal" text-decoration="none" x="200" y="360">UNREGISTERED</text><text fill="#eeeeee" stroke="none" font-family="Arial" font-size="24px" font-style="normal" font-weight="normal" text-decoration="none" x="200" y="390">UNREGISTERED</text><text fill="#eeeeee" stroke="none" font-family="Arial" font-size="24px" font-style="normal" font-weight="normal" text-decoration="none" x="200" y="420">UNREGISTERED</text><text fill="#eeeeee" stroke="none" font-family="Arial" font-size="24px" font-style="normal" font-weight="normal" text-decoration="none" x="200" y="450">UNREGISTERED</text><text fill="#eeeeee" stroke="none" font-family="Arial" font-size="24px" font-style="normal" font-weight="normal" text-decoration="none" x="200" y="480">UNREGISTERED</text><text fill="#eeeeee" stroke="none" font-family="Arial" font-size="24px" font-style="normal" font-weight="normal" text-decoration="none" x="200" y="510">UNREGISTERED</text><text fill="#eeeeee" stroke="none" font-family="Arial" font-size="24px" font-style="normal" font-weight="normal" text-decoration="none" x="400" y="0">UNREGISTERED</text><text fill="#eeeeee" stroke="none" font-family="Arial" font-size="24px" font-style="normal" font-weight="normal" text-decoration="none" x="400" y="30">UNREGISTERED</text><text fill="#eeeeee" stroke="none" font-family="Arial" font-size="24px" font-style="normal" font-weight="normal" text-decoration="none" x="400" y="60">UNREGISTERED</text><text fill="#eeeeee" stroke="none" font-family="Arial" font-size="24px" font-style="normal" font-weight="normal" text-decoration="none" x="400" y="90">UNREGISTERED</text><text fill="#eeeeee" stroke="none" font-family="Arial" font-size="24px" font-style="normal" font-weight="normal" text-decoration="none" x="400" y="120">UNREGISTERED</text><text fill="#eeeeee" stroke="none" font-family="Arial" font-size="24px" font-style="normal" font-weight="normal" text-decoration="none" x="400" y="150">UNREGISTERED</text><text fill="#eeeeee" stroke="none" font-family="Arial" font-size="24px" font-style="normal" font-weight="normal" text-decoration="none" x="400" y="180">UNREGISTERED</text><text fill="#eeeeee" stroke="none" font-family="Arial" font-size="24px" font-style="normal" font-weight="normal" text-decoration="none" x="400" y="210">UNREGISTERED</text><text fill="#eeeeee" stroke="none" font-family="Arial" font-size="24px" font-style="normal" font-weight="normal" text-decoration="none" x="400" y="240">UNREGISTERED</text><text fill="#eeeeee" stroke="none" font-family="Arial" font-size="24px" font-style="normal" font-weight="normal" text-decoration="none" x="400" y="270">UNREGISTERED</text><text fill="#eeeeee" stroke="none" font-family="Arial" font-size="24px" font-style="normal" font-weight="normal" text-decoration="none" x="400" y="300">UNREGISTERED</text><text fill="#eeeeee" stroke="none" font-family="Arial" font-size="24px" font-style="normal" font-weight="normal" text-decoration="none" x="400" y="330">UNREGISTERED</text><text fill="#eeeeee" stroke="none" font-family="Arial" font-size="24px" font-style="normal" font-weight="normal" text-decoration="none" x="400" y="360">UNREGISTERED</text><text fill="#eeeeee" stroke="none" font-family="Arial" font-size="24px" font-style="normal" font-weight="normal" text-decoration="none" x="400" y="390">UNREGISTERED</text><text fill="#eeeeee" stroke="none" font-family="Arial" font-size="24px" font-style="normal" font-weight="normal" text-decoration="none" x="400" y="420">UNREGISTERED</text><text fill="#eeeeee" stroke="none" font-family="Arial" font-size="24px" font-style="normal" font-weight="normal" text-decoration="none" x="400" y="450">UNREGISTERED</text><text fill="#eeeeee" stroke="none" font-family="Arial" font-size="24px" font-style="normal" font-weight="normal" text-decoration="none" x="400" y="480">UNREGISTERED</text><text fill="#eeeeee" stroke="none" font-family="Arial" font-size="24px" font-style="normal" font-weight="normal" text-decoration="none" x="400" y="510">UNREGISTERED</text><g transform="translate(-94,-61) scale(1,1)"><path fill="none" stroke="#000000" d="M 206 71 L 598 71 L 598 591 L 206 591 L 206 71" stroke-miterlimit="10"/></g><g transform="translate(-94,-61) scale(1,1)"><path fill="#ffffff" stroke="none" d="M 206 71 L 206 90 L 308.7138671875 90 L 318.2138671875 80.5 L 318.2138671875 71 L 206 71"/></g><g transform="translate(-94,-61) scale(1,1)"><path fill="none" stroke="#000000" d="M 206 71 L 206 90 L 308.7138671875 90 L 318.2138671875 80.5 L 318.2138671875 71 L 206 71 L 206 71" stroke-miterlimit="10"/></g><g transform="translate(-94,-61) scale(1,1)"><g><path fill="none" stroke="none"/><text fill="#000000" stroke="none" font-family="Arial" font-size="10px" font-style="normal" font-weight="normal" text-decoration="none" x="227.5615234375" y="84.5">Módulo Reportes</text></g></g><g transform="translate(-94,-61) scale(1,1)"><g><path fill="none" stroke="none"/><text fill="#000000" stroke="none" font-family="Arial" font-size="10px" font-style="normal" font-weight="bold" text-decoration="none" x="210.44580078125" y="83">uc</text></g></g><g transform="translate(-94,-61) scale(1,1)"><path fill="#ffffff" stroke="none" d="M 115.65812961647728 302.68 C 115.65812961647728 297.886167936 119.54397194142274 294 124.33740234375 294 C 129.13083274607726 294 133.01667507102272 297.886167936 133.01667507102272 302.68 C 133.01667507102272 307.473832064 129.13083274607726 311.36 124.33740234375 311.36 C 119.54397194142274 311.36 115.65812961647728 307.473832064 115.65812961647728 302.68 Z"/></g><g transform="translate(-94,-61) scale(1,1)"><path fill="none" stroke="#000000" d="M 115.65812961647728 302.68 C 115.65812961647728 297.886167936 119.54397194142274 294 124.33740234375 294 C 129.13083274607726 294 133.01667507102272 297.886167936 133.01667507102272 302.68 C 133.01667507102272 307.473832064 129.13083274607726 311.36 124.33740234375 311.36 C 119.54397194142274 311.36 115.65812961647728 307.473832064 115.65812961647728 302.68 Z" stroke-miterlimit="10"/></g><g transform="translate(-94,-61) scale(1,1)"><path fill="none" stroke="#000000" d="M 124.33740234375 311.36 L 124.33740234375 328.64" stroke-miterlimit="10"/></g><g transform="translate(-94,-61) scale(1,1)"><path fill="none" stroke="#000000" d="M 115.14758416193183 317.84 L 133.52722052556817 317.84" stroke-miterlimit="10"/></g><g transform="translate(-94,-61) scale(1,1)"><path fill="none" stroke="#000000" d="M 124.33740234375 328.64 L 111.57376598011365 346" stroke-miterlimit="10"/></g><g transform="translate(-94,-61) scale(1,1)"><path fill="none" stroke="#000000" d="M 124.33740234375 328.64 L 137.10103870738635 346" stroke-miterlimit="10"/></g><g transform="translate(-94,-61) scale(1,1)"><g><path fill="none" stroke="none"/><text fill="#000000" stroke="none" font-family="Arial" font-size="10px" font-style="normal" font-weight="bold" text-decoration="none" x="108.783203125" y="362">Admin</text></g></g><g transform="translate(-94,-61) scale(1,1)"><path fill="#C0C0C0" stroke="none" d="M 341 124 C 341 107.98374079999999 371.4446336 95 409 95 C 446.5553664 95 477 107.98374079999999 477 124 C 477 140.0162592 446.5553664 153 409 153 C 371.4446336 153 341 140.0162592 341 124 Z" opacity="0.2"/></g><g transform="translate(-94,-61) scale(1,1)"><path fill="#ffffff" stroke="none" d="M 334 117 C 334 100.98374079999999 364.4446336 88 402 88 C 439.5553664 88 470 100.98374079999999 470 117 C 470 133.0162592 439.5553664 146 402 146 C 364.4446336 146 334 133.0162592 334 117 Z"/></g><g transform="translate(-94,-61) scale(1,1)"><path fill="none" stroke="#000000" d="M 334 117 C 334 100.98374079999999 364.4446336 88 402 88 C 439.5553664 88 470 100.98374079999999 470 117 C 470 133.0162592 439.5553664 146 402 146 C 364.4446336 146 334 133.0162592 334 117 Z" stroke-miterlimit="10"/></g><g transform="translate(-94,-61) scale(1,1)"><g><path fill="none" stroke="none"/><text fill="#000000" stroke="none" font-family="Arial" font-size="10px" font-style="normal" font-weight="bold" text-decoration="none" x="368.37451171875" y="111">CU14-Generar</text><text fill="#000000" stroke="none" font-family="Arial" font-size="10px" font-style="normal" font-weight="bold" text-decoration="none" x="362.2685546875" y="121">Reporte Impreso</text><text fill="#000000" stroke="none" font-family="Arial" font-size="10px" font-style="normal" font-weight="bold" text-decoration="none" x="380.603515625" y="131">Usuarios</text></g></g><g transform="translate(-94,-61) scale(1,1)"><path fill="#C0C0C0" stroke="none" d="M 345 220 C 345 203.9837408 373.6537728 191 409 191 C 444.3462272 191 473 203.9837408 473 220 C 473 236.0162592 444.3462272 249 409 249 C 373.6537728 249 345 236.0162592 345 220 Z" opacity="0.2"/></g><g transform="translate(-94,-61) scale(1,1)"><path fill="#ffffff" stroke="none" d="M 338 213 C 338 196.9837408 366.6537728 184 402 184 C 437.3462272 184 466 196.9837408 466 213 C 466 229.0162592 437.3462272 242 402 242 C 366.6537728 242 338 229.0162592 338 213 Z"/></g><g transform="translate(-94,-61) scale(1,1)"><path fill="none" stroke="#000000" d="M 338 213 C 338 196.9837408 366.6537728 184 402 184 C 437.3462272 184 466 196.9837408 466 213 C 466 229.0162592 437.3462272 242 402 242 C 366.6537728 242 338 229.0162592 338 213 Z" stroke-miterlimit="10"/></g><g transform="translate(-94,-61) scale(1,1)"><g><path fill="none" stroke="none"/><text fill="#000000" stroke="none" font-family="Arial" font-size="10px" font-style="normal" font-weight="bold" text-decoration="none" x="368.37451171875" y="207">CU15-Generar</text><text fill="#000000" stroke="none" font-family="Arial" font-size="10px" font-style="normal" font-weight="bold" text-decoration="none" x="364.21435546875" y="217.5">Reporte Gráfico</text><text fill="#000000" stroke="none" font-family="Arial" font-size="10px" font-style="normal" font-weight="bold" text-decoration="none" x="380.603515625" y="227">Usuarios</text></g></g><g transform="translate(-94,-61) scale(1,1)"><path fill="none" stroke="#000000" d="M 146 314 L 363 147" stroke-miterlimit="10"/></g><g transform="translate(-94,-61) scale(1,1)"><path fill="none" stroke="#000000" d="M 146 322 L 337 241" stroke-miterlimit="10"/></g></g></svg>