<svg version="1.1" xmlns="http://www.w3.org/2000/svg" xmlns:xlink="http://www.w3.org/1999/xlink" width="698.56640625" height="668"><defs/><g><text fill="#eeeeee" stroke="none" font-family="Arial" font-size="24px" font-style="normal" font-weight="normal" text-decoration="none" x="0" y="0">UNREGISTERED</text><text fill="#eeeeee" stroke="none" font-family="Arial" font-size="24px" font-style="normal" font-weight="normal" text-decoration="none" x="0" y="30">UNREGISTERED</text><text fill="#eeeeee" stroke="none" font-family="Arial" font-size="24px" font-style="normal" font-weight="normal" text-decoration="none" x="0" y="60">UNREGISTERED</text><text fill="#eeeeee" stroke="none" font-family="Arial" font-size="24px" font-style="normal" font-weight="normal" text-decoration="none" x="0" y="90">UNREGISTERED</text><text fill="#eeeeee" stroke="none" font-family="Arial" font-size="24px" font-style="normal" font-weight="normal" text-decoration="none" x="0" y="120">UNREGISTERED</text><text fill="#eeeeee" stroke="none" font-family="Arial" font-size="24px" font-style="normal" font-weight="normal" text-decoration="none" x="0" y="150">UNREGISTERED</text><text fill="#eeeeee" stroke="none" font-family="Arial" font-size="24px" font-style="normal" font-weight="normal" text-decoration="none" x="0" y="180">UNREGISTERED</text><text fill="#eeeeee" stroke="none" font-family="Arial" font-size="24px" font-style="normal" font-weight="normal" text-decoration="none" x="0" y="210">UNREGISTERED</text><text fill="#eeeeee" stroke="none" font-family="Arial" font-size="24px" font-style="normal" font-weight="normal" text-decoration="none" x="0" y="240">UNREGISTERED</text><text fill="#eeeeee" stroke="none" font-family="Arial" font-size="24px" font-style="normal" font-weight="normal" text-decoration="none" x="0" y="270">UNREGISTERED</text><text fill="#eeeeee" stroke="none" font-family="Arial" font-size="24px" font-style="normal" font-weight="normal" text-decoration="none" x="0" y="300">UNREGISTERED</text><text fill="#eeeeee" stroke="none" font-family="Arial" font-size="24px" font-style="normal" font-weight="normal" text-decoration="none" x="0" y="330">UNREGISTERED</text><text fill="#eeeeee" stroke="none" font-family="Arial" font-size="24px" font-style="normal" font-weight="normal" text-decoration="none" x="0" y="360">UNREGISTERED</text><text fill="#eeeeee" stroke="none" font-family="Arial" font-size="24px" font-style="normal" font-weight="normal" text-decoration="none" x="0" y="390">UNREGISTERED</text><text fill="#eeeeee" stroke="none" font-family="Arial" font-size="24px" font-style="normal" font-weight="normal" text-decoration="none" x="0" y="420">UNREGISTERED</text><text fill="#eeeeee" stroke="none" font-family="Arial" font-size="24px" font-style="normal" font-weight="normal" text-decoration="none" x="0" y="450">UNREGISTERED</text><text fill="#eeeeee" stroke="none" font-family="Arial" font-size="24px" font-style="normal" font-weight="normal" text-decoration="none" x="0" y="480">UNREGISTERED</text><text fill="#eeeeee" stroke="none" font-family="Arial" font-size="24px" font-style="normal" font-weight="normal" text-decoration="none" x="0" y="510">UNREGISTERED</text><text fill="#eeeeee" stroke="none" font-family="Arial" font-size="24px" font-style="normal" font-weight="normal" text-decoration="none" x="0" y="540">UNREGISTERED</text><text fill="#eeeeee" stroke="none" font-family="Arial" font-size="24px" font-style="normal" font-weight="normal" text-decoration="none" x="0" y="570">UNREGISTERED</text><text fill="#eeeeee" stroke="none" font-family="Arial" font-size="24px" font-style="normal" font-weight="normal" text-decoration="none" x="0" y="600">UNREGISTERED</text><text fill="#eeeeee" stroke="none" font-family="Arial" font-size="24px" font-style="normal" font-weight="normal" text-decoration="none" x="0" y="630">UNREGISTERED</text><text fill="#eeeeee" stroke="none" font-family="Arial" font-size="24px" font-style="normal" font-weight="normal" text-decoration="none" x="0" y="660">UNREGISTERED</text><text fill="#eeeeee" stroke="none" font-family="Arial" font-size="24px" font-style="normal" font-weight="normal" text-decoration="none" x="200" y="0">UNREGISTERED</text><text fill="#eeeeee" stroke="none" font-family="Arial" font-size="24px" font-style="normal" font-weight="normal" text-decoration="none" x="200" y="30">UNREGISTERED</text><text fill="#eeeeee" stroke="none" font-family="Arial" font-size="24px" font-style="normal" font-weight="normal" text-decoration="none" x="200" y="60">UNREGISTERED</text><text fill="#eeeeee" stroke="none" font-family="Arial" font-size="24px" font-style="normal" font-weight="normal" text-decoration="none" x="200" y="90">UNREGISTERED</text><text fill="#eeeeee" stroke="none" font-family="Arial" font-size="24px" font-style="normal" font-weight="normal" text-decoration="none" x="200" y="120">UNREGISTERED</text><text fill="#eeeeee" stroke="none" font-family="Arial" font-size="24px" font-style="normal" font-weight="normal" text-decoration="none" x="200" y="150">UNREGISTERED</text><text fill="#eeeeee" stroke="none" font-family="Arial" font-size="24px" font-style="normal" font-weight="normal" text-decoration="none" x="200" y="180">UNREGISTERED</text><text fill="#eeeeee" stroke="none" font-family="Arial" font-size="24px" font-style="normal" font-weight="normal" text-decoration="none" x="200" y="210">UNREGISTERED</text><text fill="#eeeeee" stroke="none" font-family="Arial" font-size="24px" font-style="normal" font-weight="normal" text-decoration="none" x="200" y="240">UNREGISTERED</text><text fill="#eeeeee" stroke="none" font-family="Arial" font-size="24px" font-style="normal" font-weight="normal" text-decoration="none" x="200" y="270">UNREGISTERED</text><text fill="#eeeeee" stroke="none" font-family="Arial" font-size="24px" font-style="normal" font-weight="normal" text-decoration="none" x="200" y="300">UNREGISTERED</text><text fill="#eeeeee" stroke="none" font-family="Arial" font-size="24px" font-style="normal" font-weight="normal" text-decoration="none" x="200" y="330">UNREGISTERED</text><text fill="#eeeeee" stroke="none" font-family="Arial" font-size="24px" font-style="normal" font-weight="normal" text-decoration="none" x="200" y="360">UNREGISTERED</text><text fill="#eeeeee" stroke="none" font-family="Arial" font-size="24px" font-style="normal" font-weight="normal" text-decoration="none" x="200" y="390">UNREGISTERED</text><text fill="#eeeeee" stroke="none" font-family="Arial" font-size="24px" font-style="normal" font-weight="normal" text-decoration="none" x="200" y="420">UNREGISTERED</text><text fill="#eeeeee" stroke="none" font-family="Arial" font-size="24px" font-style="normal" font-weight="normal" text-decoration="none" x="200" y="450">UNREGISTERED</text><text fill="#eeeeee" stroke="none" font-family="Arial" font-size="24px" font-style="normal" font-weight="normal" text-decoration="none" x="200" y="480">UNREGISTERED</text><text fill="#eeeeee" stroke="none" font-family="Arial" font-size="24px" font-style="normal" font-weight="normal" text-decoration="none" x="200" y="510">UNREGISTERED</text><text fill="#eeeeee" stroke="none" font-family="Arial" font-size="24px" font-style="normal" font-weight="normal" text-decoration="none" x="200" y="540">UNREGISTERED</text><text fill="#eeeeee" stroke="none" font-family="Arial" font-size="24px" font-style="normal" font-weight="normal" text-decoration="none" x="200" y="570">UNREGISTERED</text><text fill="#eeeeee" stroke="none" font-family="Arial" font-size="24px" font-style="normal" font-weight="normal" text-decoration="none" x="200" y="600">UNREGISTERED</text><text fill="#eeeeee" stroke="none" font-family="Arial" font-size="24px" font-style="normal" font-weight="normal" text-decoration="none" x="200" y="630">UNREGISTERED</text><text fill="#eeeeee" stroke="none" font-family="Arial" font-size="24px" font-style="normal" font-weight="normal" text-decoration="none" x="200" y="660">UNREGISTERED</text><text fill="#eeeeee" stroke="none" font-family="Arial" font-size="24px" font-style="normal" font-weight="normal" text-decoration="none" x="400" y="0">UNREGISTERED</text><text fill="#eeeeee" stroke="none" font-family="Arial" font-size="24px" font-style="normal" font-weight="normal" text-decoration="none" x="400" y="30">UNREGISTERED</text><text fill="#eeeeee" stroke="none" font-family="Arial" font-size="24px" font-style="normal" font-weight="normal" text-decoration="none" x="400" y="60">UNREGISTERED</text><text fill="#eeeeee" stroke="none" font-family="Arial" font-size="24px" font-style="normal" font-weight="normal" text-decoration="none" x="400" y="90">UNREGISTERED</text><text fill="#eeeeee" stroke="none" font-family="Arial" font-size="24px" font-style="normal" font-weight="normal" text-decoration="none" x="400" y="120">UNREGISTERED</text><text fill="#eeeeee" stroke="none" font-family="Arial" font-size="24px" font-style="normal" font-weight="normal" text-decoration="none" x="400" y="150">UNREGISTERED</text><text fill="#eeeeee" stroke="none" font-family="Arial" font-size="24px" font-style="normal" font-weight="normal" text-decoration="none" x="400" y="180">UNREGISTERED</text><text fill="#eeeeee" stroke="none" font-family="Arial" font-size="24px" font-style="normal" font-weight="normal" text-decoration="none" x="400" y="210">UNREGISTERED</text><text fill="#eeeeee" stroke="none" font-family="Arial" font-size="24px" font-style="normal" font-weight="normal" text-decoration="none" x="400" y="240">UNREGISTERED</text><text fill="#eeeeee" stroke="none" font-family="Arial" font-size="24px" font-style="normal" font-weight="normal" text-decoration="none" x="400" y="270">UNREGISTERED</text><text fill="#eeeeee" stroke="none" font-family="Arial" font-size="24px" font-style="normal" font-weight="normal" text-decoration="none" x="400" y="300">UNREGISTERED</text><text fill="#eeeeee" stroke="none" font-family="Arial" font-size="24px" font-style="normal" font-weight="normal" text-decoration="none" x="400" y="330">UNREGISTERED</text><text fill="#eeeeee" stroke="none" font-family="Arial" font-size="24px" font-style="normal" font-weight="normal" text-decoration="none" x="400" y="360">UNREGISTERED</text><text fill="#eeeeee" stroke="none" font-family="Arial" font-size="24px" font-style="normal" font-weight="normal" text-decoration="none" x="400" y="390">UNREGISTERED</text><text fill="#eeeeee" stroke="none" font-family="Arial" font-size="24px" font-style="normal" font-weight="normal" text-decoration="none" x="400" y="420">UNREGISTERED</text><text fill="#eeeeee" stroke="none" font-family="Arial" font-size="24px" font-style="normal" font-weight="normal" text-decoration="none" x="400" y="450">UNREGISTERED</text><text fill="#eeeeee" stroke="none" font-family="Arial" font-size="24px" font-style="normal" font-weight="normal" text-decoration="none" x="400" y="480">UNREGISTERED</text><text fill="#eeeeee" stroke="none" font-family="Arial" font-size="24px" font-style="normal" font-weight="normal" text-decoration="none" x="400" y="510">UNREGISTERED</text><text fill="#eeeeee" stroke="none" font-family="Arial" font-size="24px" font-style="normal" font-weight="normal" text-decoration="none" x="400" y="540">UNREGISTERED</text><text fill="#eeeeee" stroke="none" font-family="Arial" font-size="24px" font-style="normal" font-weight="normal" text-decoration="none" x="400" y="570">UNREGISTERED</text><text fill="#eeeeee" stroke="none" font-family="Arial" font-size="24px" font-style="normal" font-weight="normal" text-decoration="none" x="400" y="600">UNREGISTERED</text><text fill="#eeeeee" stroke="none" font-family="Arial" font-size="24px" font-style="normal" font-weight="normal" text-decoration="none" x="400" y="630">UNREGISTERED</text><text fill="#eeeeee" stroke="none" font-family="Arial" font-size="24px" font-style="normal" font-weight="normal" text-decoration="none" x="400" y="660">UNREGISTERED</text><text fill="#eeeeee" stroke="none" font-family="Arial" font-size="24px" font-style="normal" font-weight="normal" text-decoration="none" x="600" y="0">UNREGISTERED</text><text fill="#eeeeee" stroke="none" font-family="Arial" font-size="24px" font-style="normal" font-weight="normal" text-decoration="none" x="600" y="30">UNREGISTERED</text><text fill="#eeeeee" stroke="none" font-family="Arial" font-size="24px" font-style="normal" font-weight="normal" text-decoration="none" x="600" y="60">UNREGISTERED</text><text fill="#eeeeee" stroke="none" font-family="Arial" font-size="24px" font-style="normal" font-weight="normal" text-decoration="none" x="600" y="90">UNREGISTERED</text><text fill="#eeeeee" stroke="none" font-family="Arial" font-size="24px" font-style="normal" font-weight="normal" text-decoration="none" x="600" y="120">UNREGISTERED</text><text fill="#eeeeee" stroke="none" font-family="Arial" font-size="24px" font-style="normal" font-weight="normal" text-decoration="none" x="600" y="150">UNREGISTERED</text><text fill="#eeeeee" stroke="none" font-family="Arial" font-size="24px" font-style="normal" font-weight="normal" text-decoration="none" x="600" y="180">UNREGISTERED</text><text fill="#eeeeee" stroke="none" font-family="Arial" font-size="24px" font-style="normal" font-weight="normal" text-decoration="none" x="600" y="210">UNREGISTERED</text><text fill="#eeeeee" stroke="none" font-family="Arial" font-size="24px" font-style="normal" font-weight="normal" text-decoration="none" x="600" y="240">UNREGISTERED</text><text fill="#eeeeee" stroke="none" font-family="Arial" font-size="24px" font-style="normal" font-weight="normal" text-decoration="none" x="600" y="270">UNREGISTERED</text><text fill="#eeeeee" stroke="none" font-family="Arial" font-size="24px" font-style="normal" font-weight="normal" text-decoration="none" x="600" y="300">UNREGISTERED</text><text fill="#eeeeee" stroke="none" font-family="Arial" font-size="24px" font-style="normal" font-weight="normal" text-decoration="none" x="600" y="330">UNREGISTERED</text><text fill="#eeeeee" stroke="none" font-family="Arial" font-size="24px" font-style="normal" font-weight="normal" text-decoration="none" x="600" y="360">UNREGISTERED</text><text fill="#eeeeee" stroke="none" font-family="Arial" font-size="24px" font-style="normal" font-weight="normal" text-decoration="none" x="600" y="390">UNREGISTERED</text><text fill="#eeeeee" stroke="none" font-family="Arial" font-size="24px" font-style="normal" font-weight="normal" text-decoration="none" x="600" y="420">UNREGISTERED</text><text fill="#eeeeee" stroke="none" font-family="Arial" font-size="24px" font-style="normal" font-weight="normal" text-decoration="none" x="600" y="450">UNREGISTERED</text><text fill="#eeeeee" stroke="none" font-family="Arial" font-size="24px" font-style="normal" font-weight="normal" text-decoration="none" x="600" y="480">UNREGISTERED</text><text fill="#eeeeee" stroke="none" font-family="Arial" font-size="24px" font-style="normal" font-weight="normal" text-decoration="none" x="600" y="510">UNREGISTERED</text><text fill="#eeeeee" stroke="none" font-family="Arial" font-size="24px" font-style="normal" font-weight="normal" text-decoration="none" x="600" y="540">UNREGISTERED</text><text fill="#eeeeee" stroke="none" font-family="Arial" font-size="24px" font-style="normal" font-weight="normal" text-decoration="none" x="600" y="570">UNREGISTERED</text><text fill="#eeeeee" stroke="none" font-family="Arial" font-size="24px" font-style="normal" font-weight="normal" text-decoration="none" x="600" y="600">UNREGISTERED</text><text fill="#eeeeee" stroke="none" font-family="Arial" font-size="24px" font-style="normal" font-weight="normal" text-decoration="none" x="600" y="630">UNREGISTERED</text><text fill="#eeeeee" stroke="none" font-family="Arial" font-size="24px" font-style="normal" font-weight="normal" text-decoration="none" x="600" y="660">UNREGISTERED</text><g transform="translate(-46,-45) scale(1,1)"><path fill="none" stroke="#000000" d="M 136 55 L 632 55 L 632 703 L 136 703 L 136 55" stroke-miterlimit="10"/></g><g transform="translate(-46,-45) scale(1,1)"><path fill="#ffffff" stroke="none" d="M 136 55 L 136 74 L 237.595703125 74 L 247.095703125 64.5 L 247.095703125 55 L 136 55"/></g><g transform="translate(-46,-45) scale(1,1)"><path fill="none" stroke="#000000" d="M 136 55 L 136 74 L 237.595703125 74 L 247.095703125 64.5 L 247.095703125 55 L 136 55 L 136 55" stroke-miterlimit="10"/></g><g transform="translate(-46,-45) scale(1,1)"><g><path fill="none" stroke="none"/><text fill="#000000" stroke="none" font-family="Arial" font-size="10px" font-style="normal" font-weight="normal" text-decoration="none" x="157.5615234375" y="68.5">Módulo Usuarios</text></g></g><g transform="translate(-46,-45) scale(1,1)"><g><path fill="none" stroke="none"/><text fill="#000000" stroke="none" font-family="Arial" font-size="10px" font-style="normal" font-weight="bold" text-decoration="none" x="140.44580078125" y="67">uc</text></g></g><g transform="translate(-46,-45) scale(1,1)"><path fill="#ffffff" stroke="none" d="M 74.60393039772727 350.68 C 74.60393039772727 345.886167936 78.48977272267273 342 83.283203125 342 C 88.07663352732727 342 91.96247585227273 345.886167936 91.96247585227273 350.68 C 91.96247585227273 355.473832064 88.07663352732727 359.36 83.283203125 359.36 C 78.48977272267273 359.36 74.60393039772727 355.473832064 74.60393039772727 350.68 Z"/></g><g transform="translate(-46,-45) scale(1,1)"><path fill="none" stroke="#000000" d="M 74.60393039772727 350.68 C 74.60393039772727 345.886167936 78.48977272267273 342 83.283203125 342 C 88.07663352732727 342 91.96247585227273 345.886167936 91.96247585227273 350.68 C 91.96247585227273 355.473832064 88.07663352732727 359.36 83.283203125 359.36 C 78.48977272267273 359.36 74.60393039772727 355.473832064 74.60393039772727 350.68 Z" stroke-miterlimit="10"/></g><g transform="translate(-46,-45) scale(1,1)"><path fill="none" stroke="#000000" d="M 83.283203125 359.36 L 83.283203125 376.64" stroke-miterlimit="10"/></g><g transform="translate(-46,-45) scale(1,1)"><path fill="none" stroke="#000000" d="M 74.09338494318182 365.84 L 92.47302130681818 365.84" stroke-miterlimit="10"/></g><g transform="translate(-46,-45) scale(1,1)"><path fill="none" stroke="#000000" d="M 83.283203125 376.64 L 70.51956676136363 394" stroke-miterlimit="10"/></g><g transform="translate(-46,-45) scale(1,1)"><path fill="none" stroke="#000000" d="M 83.283203125 376.64 L 96.04683948863637 394" stroke-miterlimit="10"/></g><g transform="translate(-46,-45) scale(1,1)"><g><path fill="none" stroke="none"/><text fill="#000000" stroke="none" font-family="Arial" font-size="10px" font-style="normal" font-weight="bold" text-decoration="none" x="67.72900390625" y="410">Admin</text></g></g><g transform="translate(-46,-45) scale(1,1)"><path fill="#C0C0C0" stroke="none" d="M 318 146 C 318 132.7451648 339.266472 122 365.5 122 C 391.733528 122 413 132.7451648 413 146 C 413 159.2548352 391.733528 170 365.5 170 C 339.266472 170 318 159.2548352 318 146 Z" opacity="0.2"/></g><g transform="translate(-46,-45) scale(1,1)"><path fill="#ffffff" stroke="none" d="M 311 139 C 311 125.7451648 332.266472 115 358.5 115 C 384.733528 115 406 125.7451648 406 139 C 406 152.2548352 384.733528 163 358.5 163 C 332.266472 163 311 152.2548352 311 139 Z"/></g><g transform="translate(-46,-45) scale(1,1)"><path fill="none" stroke="#000000" d="M 311 139 C 311 125.7451648 332.266472 115 358.5 115 C 384.733528 115 406 125.7451648 406 139 C 406 152.2548352 384.733528 163 358.5 163 C 332.266472 163 311 152.2548352 311 139 Z" stroke-miterlimit="10"/></g><g transform="translate(-46,-45) scale(1,1)"><g><path fill="none" stroke="none"/><text fill="#000000" stroke="none" font-family="Arial" font-size="10px" font-style="normal" font-weight="bold" text-decoration="none" x="329.32275390625" y="138">CU01-Iniciar</text><text fill="#000000" stroke="none" font-family="Arial" font-size="10px" font-style="normal" font-weight="bold" text-decoration="none" x="342.10595703125" y="148.5">Sesión</text></g></g><g transform="translate(-46,-45) scale(1,1)"><path fill="#C0C0C0" stroke="none" d="M 459 95 C 459 81.7451648 486.5344848 71 520.5 71 C 554.4655152 71 582 81.7451648 582 95 C 582 108.2548352 554.4655152 119 520.5 119 C 486.5344848 119 459 108.2548352 459 95 Z" opacity="0.2"/></g><g transform="translate(-46,-45) scale(1,1)"><path fill="#ffffff" stroke="none" d="M 452 88 C 452 74.7451648 479.5344848 64 513.5 64 C 547.4655152 64 575 74.7451648 575 88 C 575 101.2548352 547.4655152 112 513.5 112 C 479.5344848 112 452 101.2548352 452 88 Z"/></g><g transform="translate(-46,-45) scale(1,1)"><path fill="none" stroke="#000000" d="M 452 88 C 452 74.7451648 479.5344848 64 513.5 64 C 547.4655152 64 575 74.7451648 575 88 C 575 101.2548352 547.4655152 112 513.5 112 C 479.5344848 112 452 101.2548352 452 88 Z" stroke-miterlimit="10"/></g><g transform="translate(-46,-45) scale(1,1)"><g><path fill="none" stroke="none"/><text fill="#000000" stroke="none" font-family="Arial" font-size="10px" font-style="normal" font-weight="bold" text-decoration="none" x="474.31787109375" y="87">CU02-Recuperar</text><text fill="#000000" stroke="none" font-family="Arial" font-size="10px" font-style="normal" font-weight="bold" text-decoration="none" x="485.99267578125" y="97.5">Contraseña</text></g></g><g transform="translate(-46,-45) scale(1,1)"><path fill="none" stroke="#000000" d="M 451 108 L 407 123" stroke-miterlimit="10" stroke-dasharray="3"/></g><g transform="translate(-46,-45) scale(1,1)"><path fill="none" stroke="#000000" d="M 415.2607736634596 115.73641834346905 L 407 123 L 417.9773769203147 123.70512123024425" stroke-miterlimit="10"/></g><g transform="translate(-46,-45) scale(1,1)"><g><path fill="none" stroke="none"/><text fill="#000000" stroke="none" font-family="Arial" font-size="10px" font-style="normal" font-weight="normal" text-decoration="none" x="393.5" y="104">«extend»</text></g></g><g transform="translate(-46,-45) scale(1,1)"><path fill="#C0C0C0" stroke="none" d="M 317 203 C 317 190.8497344 338.4903296 181 365 181 C 391.5096704 181 413 190.8497344 413 203 C 413 215.1502656 391.5096704 225 365 225 C 338.4903296 225 317 215.1502656 317 203 Z" opacity="0.2"/></g><g transform="translate(-46,-45) scale(1,1)"><path fill="#ffffff" stroke="none" d="M 310 196 C 310 183.8497344 331.4903296 174 358 174 C 384.5096704 174 406 183.8497344 406 196 C 406 208.1502656 384.5096704 218 358 218 C 331.4903296 218 310 208.1502656 310 196 Z"/></g><g transform="translate(-46,-45) scale(1,1)"><path fill="none" stroke="#000000" d="M 310 196 C 310 183.8497344 331.4903296 174 358 174 C 384.5096704 174 406 183.8497344 406 196 C 406 208.1502656 384.5096704 218 358 218 C 331.4903296 218 310 208.1502656 310 196 Z" stroke-miterlimit="10"/></g><g transform="translate(-46,-45) scale(1,1)"><g><path fill="none" stroke="none"/><text fill="#000000" stroke="none" font-family="Arial" font-size="10px" font-style="normal" font-weight="bold" text-decoration="none" x="328.5419921875" y="195">CU03-Cerrar</text><text fill="#000000" stroke="none" font-family="Arial" font-size="10px" font-style="normal" font-weight="bold" text-decoration="none" x="341.60595703125" y="205.5">Sesión</text></g></g><g transform="translate(-46,-45) scale(1,1)"><path fill="#C0C0C0" stroke="none" d="M 320 258 C 320 245.8497344 340.147184 236 365 236 C 389.852816 236 410 245.8497344 410 258 C 410 270.1502656 389.852816 280 365 280 C 340.147184 280 320 270.1502656 320 258 Z" opacity="0.2"/></g><g transform="translate(-46,-45) scale(1,1)"><path fill="#ffffff" stroke="none" d="M 313 251 C 313 238.8497344 333.147184 229 358 229 C 382.852816 229 403 238.8497344 403 251 C 403 263.1502656 382.852816 273 358 273 C 333.147184 273 313 263.1502656 313 251 Z"/></g><g transform="translate(-46,-45) scale(1,1)"><path fill="none" stroke="#000000" d="M 313 251 C 313 238.8497344 333.147184 229 358 229 C 382.852816 229 403 238.8497344 403 251 C 403 263.1502656 382.852816 273 358 273 C 333.147184 273 313 263.1502656 313 251 Z" stroke-miterlimit="10"/></g><g transform="translate(-46,-45) scale(1,1)"><g><path fill="none" stroke="none"/><text fill="#000000" stroke="none" font-family="Arial" font-size="10px" font-style="normal" font-weight="bold" text-decoration="none" x="330.48779296875" y="250">CU04-Crear</text><text fill="#000000" stroke="none" font-family="Arial" font-size="10px" font-style="normal" font-weight="bold" text-decoration="none" x="349.94580078125" y="260">Rol</text></g></g><g transform="translate(-46,-45) scale(1,1)"><path fill="#C0C0C0" stroke="none" d="M 305 313 C 305 300.8497344 331.862912 291 365 291 C 398.137088 291 425 300.8497344 425 313 C 425 325.1502656 398.137088 335 365 335 C 331.862912 335 305 325.1502656 305 313 Z" opacity="0.2"/></g><g transform="translate(-46,-45) scale(1,1)"><path fill="#ffffff" stroke="none" d="M 298 306 C 298 293.8497344 324.862912 284 358 284 C 391.137088 284 418 293.8497344 418 306 C 418 318.1502656 391.137088 328 358 328 C 324.862912 328 298 318.1502656 298 306 Z"/></g><g transform="translate(-46,-45) scale(1,1)"><path fill="none" stroke="#000000" d="M 298 306 C 298 293.8497344 324.862912 284 358 284 C 391.137088 284 418 293.8497344 418 306 C 418 318.1502656 391.137088 328 358 328 C 324.862912 328 298 318.1502656 298 306 Z" stroke-miterlimit="10"/></g><g transform="translate(-46,-45) scale(1,1)"><g><path fill="none" stroke="none"/><text fill="#000000" stroke="none" font-family="Arial" font-size="10px" font-style="normal" font-weight="bold" text-decoration="none" x="320.216796875" y="305">CU05-Consultar</text><text fill="#000000" stroke="none" font-family="Arial" font-size="10px" font-style="normal" font-weight="bold" text-decoration="none" x="344.38427734375" y="315">Roles</text></g></g><g transform="translate(-46,-45) scale(1,1)"><path fill="#C0C0C0" stroke="none" d="M 305 368 C 305 355.8497344 332.0867696 346 365.5 346 C 398.9132304 346 426 355.8497344 426 368 C 426 380.1502656 398.9132304 390 365.5 390 C 332.0867696 390 305 380.1502656 305 368 Z" opacity="0.2"/></g><g transform="translate(-46,-45) scale(1,1)"><path fill="#ffffff" stroke="none" d="M 298 361 C 298 348.8497344 325.0867696 339 358.5 339 C 391.9132304 339 419 348.8497344 419 361 C 419 373.1502656 391.9132304 383 358.5 383 C 325.0867696 383 298 373.1502656 298 361 Z"/></g><g transform="translate(-46,-45) scale(1,1)"><path fill="none" stroke="#000000" d="M 298 361 C 298 348.8497344 325.0867696 339 358.5 339 C 391.9132304 339 419 348.8497344 419 361 C 419 373.1502656 391.9132304 383 358.5 383 C 325.0867696 383 298 373.1502656 298 361 Z" stroke-miterlimit="10"/></g><g transform="translate(-46,-45) scale(1,1)"><g><path fill="none" stroke="none"/><text fill="#000000" stroke="none" font-family="Arial" font-size="10px" font-style="normal" font-weight="bold" text-decoration="none" x="320.1552734375" y="360">CU06-Actualizar</text><text fill="#000000" stroke="none" font-family="Arial" font-size="10px" font-style="normal" font-weight="bold" text-decoration="none" x="344.88427734375" y="370">Roles</text></g></g><g transform="translate(-46,-45) scale(1,1)"><path fill="#C0C0C0" stroke="none" d="M 311 423 C 311 410.8497344 335.4004784 401 365.5 401 C 395.5995216 401 420 410.8497344 420 423 C 420 435.1502656 395.5995216 445 365.5 445 C 335.4004784 445 311 435.1502656 311 423 Z" opacity="0.2"/></g><g transform="translate(-46,-45) scale(1,1)"><path fill="#ffffff" stroke="none" d="M 304 416 C 304 403.8497344 328.4004784 394 358.5 394 C 388.5995216 394 413 403.8497344 413 416 C 413 428.1502656 388.5995216 438 358.5 438 C 328.4004784 438 304 428.1502656 304 416 Z"/></g><g transform="translate(-46,-45) scale(1,1)"><path fill="none" stroke="#000000" d="M 304 416 C 304 403.8497344 328.4004784 394 358.5 394 C 388.5995216 394 413 403.8497344 413 416 C 413 428.1502656 388.5995216 438 358.5 438 C 328.4004784 438 304 428.1502656 304 416 Z" stroke-miterlimit="10"/></g><g transform="translate(-46,-45) scale(1,1)"><g><path fill="none" stroke="none"/><text fill="#000000" stroke="none" font-family="Arial" font-size="10px" font-style="normal" font-weight="bold" text-decoration="none" x="324.32275390625" y="415">CU07-Eliminar</text><text fill="#000000" stroke="none" font-family="Arial" font-size="10px" font-style="normal" font-weight="bold" text-decoration="none" x="344.88427734375" y="425">Roles</text></g></g><g transform="translate(-46,-45) scale(1,1)"><path fill="#C0C0C0" stroke="none" d="M 320 478 C 320 465.8497344 340.147184 456 365 456 C 389.852816 456 410 465.8497344 410 478 C 410 490.1502656 389.852816 500 365 500 C 340.147184 500 320 490.1502656 320 478 Z" opacity="0.2"/></g><g transform="translate(-46,-45) scale(1,1)"><path fill="#ffffff" stroke="none" d="M 313 471 C 313 458.8497344 333.147184 449 358 449 C 382.852816 449 403 458.8497344 403 471 C 403 483.1502656 382.852816 493 358 493 C 333.147184 493 313 483.1502656 313 471 Z"/></g><g transform="translate(-46,-45) scale(1,1)"><path fill="none" stroke="#000000" d="M 313 471 C 313 458.8497344 333.147184 449 358 449 C 382.852816 449 403 458.8497344 403 471 C 403 483.1502656 382.852816 493 358 493 C 333.147184 493 313 483.1502656 313 471 Z" stroke-miterlimit="10"/></g><g transform="translate(-46,-45) scale(1,1)"><g><path fill="none" stroke="none"/><text fill="#000000" stroke="none" font-family="Arial" font-size="10px" font-style="normal" font-weight="bold" text-decoration="none" x="330.48779296875" y="470">CU08-Crear</text><text fill="#000000" stroke="none" font-family="Arial" font-size="10px" font-style="normal" font-weight="bold" text-decoration="none" x="339.38427734375" y="480">Usuario</text></g></g><g transform="translate(-46,-45) scale(1,1)"><path fill="#C0C0C0" stroke="none" d="M 305 533 C 305 520.8497344 331.862912 511 365 511 C 398.137088 511 425 520.8497344 425 533 C 425 545.1502656 398.137088 555 365 555 C 331.862912 555 305 545.1502656 305 533 Z" opacity="0.2"/></g><g transform="translate(-46,-45) scale(1,1)"><path fill="#ffffff" stroke="none" d="M 298 526 C 298 513.8497344 324.862912 504 358 504 C 391.137088 504 418 513.8497344 418 526 C 418 538.1502656 391.137088 548 358 548 C 324.862912 548 298 538.1502656 298 526 Z"/></g><g transform="translate(-46,-45) scale(1,1)"><path fill="none" stroke="#000000" d="M 298 526 C 298 513.8497344 324.862912 504 358 504 C 391.137088 504 418 513.8497344 418 526 C 418 538.1502656 391.137088 548 358 548 C 324.862912 548 298 538.1502656 298 526 Z" stroke-miterlimit="10"/></g><g transform="translate(-46,-45) scale(1,1)"><g><path fill="none" stroke="none"/><text fill="#000000" stroke="none" font-family="Arial" font-size="10px" font-style="normal" font-weight="bold" text-decoration="none" x="320.216796875" y="525">CU12-Consultar</text><text fill="#000000" stroke="none" font-family="Arial" font-size="10px" font-style="normal" font-weight="bold" text-decoration="none" x="336.603515625" y="535">Usuarios</text></g></g><g transform="translate(-46,-45) scale(1,1)"><path fill="#C0C0C0" stroke="none" d="M 305 588 C 305 575.8497344 332.0867696 566 365.5 566 C 398.9132304 566 426 575.8497344 426 588 C 426 600.1502656 398.9132304 610 365.5 610 C 332.0867696 610 305 600.1502656 305 588 Z" opacity="0.2"/></g><g transform="translate(-46,-45) scale(1,1)"><path fill="#ffffff" stroke="none" d="M 298 581 C 298 568.8497344 325.0867696 559 358.5 559 C 391.9132304 559 419 568.8497344 419 581 C 419 593.1502656 391.9132304 603 358.5 603 C 325.0867696 603 298 593.1502656 298 581 Z"/></g><g transform="translate(-46,-45) scale(1,1)"><path fill="none" stroke="#000000" d="M 298 581 C 298 568.8497344 325.0867696 559 358.5 559 C 391.9132304 559 419 568.8497344 419 581 C 419 593.1502656 391.9132304 603 358.5 603 C 325.0867696 603 298 593.1502656 298 581 Z" stroke-miterlimit="10"/></g><g transform="translate(-46,-45) scale(1,1)"><g><path fill="none" stroke="none"/><text fill="#000000" stroke="none" font-family="Arial" font-size="10px" font-style="normal" font-weight="bold" text-decoration="none" x="320.1552734375" y="580">CU13-Actualizar</text><text fill="#000000" stroke="none" font-family="Arial" font-size="10px" font-style="normal" font-weight="bold" text-decoration="none" x="339.88427734375" y="590">Usuario</text></g></g><g transform="translate(-46,-45) scale(1,1)"><path fill="#C0C0C0" stroke="none" d="M 311 643 C 311 630.8497344 335.4004784 621 365.5 621 C 395.5995216 621 420 630.8497344 420 643 C 420 655.1502656 395.5995216 665 365.5 665 C 335.4004784 665 311 655.1502656 311 643 Z" opacity="0.2"/></g><g transform="translate(-46,-45) scale(1,1)"><path fill="#ffffff" stroke="none" d="M 304 636 C 304 623.8497344 328.4004784 614 358.5 614 C 388.5995216 614 413 623.8497344 413 636 C 413 648.1502656 388.5995216 658 358.5 658 C 328.4004784 658 304 648.1502656 304 636 Z"/></g><g transform="translate(-46,-45) scale(1,1)"><path fill="none" stroke="#000000" d="M 304 636 C 304 623.8497344 328.4004784 614 358.5 614 C 388.5995216 614 413 623.8497344 413 636 C 413 648.1502656 388.5995216 658 358.5 658 C 328.4004784 658 304 648.1502656 304 636 Z" stroke-miterlimit="10"/></g><g transform="translate(-46,-45) scale(1,1)"><g><path fill="none" stroke="none"/><text fill="#000000" stroke="none" font-family="Arial" font-size="10px" font-style="normal" font-weight="bold" text-decoration="none" x="324.32275390625" y="635">CU14-Eliminar</text><text fill="#000000" stroke="none" font-family="Arial" font-size="10px" font-style="normal" font-weight="bold" text-decoration="none" x="339.88427734375" y="645">Usuario</text></g></g><g transform="translate(-46,-45) scale(1,1)"><path fill="#C0C0C0" stroke="none" d="M 455 310.5 C 455 301.9395856 484.3253456 295 520.5 295 C 556.6746544 295 586 301.9395856 586 310.5 C 586 319.0604144 556.6746544 326 520.5 326 C 484.3253456 326 455 319.0604144 455 310.5 Z" opacity="0.2"/></g><g transform="translate(-46,-45) scale(1,1)"><path fill="#ffffff" stroke="none" d="M 448 303.5 C 448 294.9395856 477.3253456 288 513.5 288 C 549.6746544 288 579 294.9395856 579 303.5 C 579 312.0604144 549.6746544 319 513.5 319 C 477.3253456 319 448 312.0604144 448 303.5 Z"/></g><g transform="translate(-46,-45) scale(1,1)"><path fill="none" stroke="#000000" d="M 448 303.5 C 448 294.9395856 477.3253456 288 513.5 288 C 549.6746544 288 579 294.9395856 579 303.5 C 579 312.0604144 549.6746544 319 513.5 319 C 477.3253456 319 448 312.0604144 448 303.5 Z" stroke-miterlimit="10"/></g><g transform="translate(-46,-45) scale(1,1)"><g><path fill="none" stroke="none"/><text fill="#000000" stroke="none" font-family="Arial" font-size="10px" font-style="normal" font-weight="bold" text-decoration="none" x="471.537109375" y="307.5">CU12-Registrarse</text></g></g><g transform="translate(-46,-45) scale(1,1)"><path fill="#ffffff" stroke="none" d="M 698.6039303977273 145.68 C 698.6039303977273 140.886167936 702.4897727226727 137 707.283203125 137 C 712.0766335273273 137 715.9624758522727 140.886167936 715.9624758522727 145.68 C 715.9624758522727 150.47383206400002 712.0766335273273 154.36 707.283203125 154.36 C 702.4897727226727 154.36 698.6039303977273 150.47383206400002 698.6039303977273 145.68 Z"/></g><g transform="translate(-46,-45) scale(1,1)"><path fill="none" stroke="#000000" d="M 698.6039303977273 145.68 C 698.6039303977273 140.886167936 702.4897727226727 137 707.283203125 137 C 712.0766335273273 137 715.9624758522727 140.886167936 715.9624758522727 145.68 C 715.9624758522727 150.47383206400002 712.0766335273273 154.36 707.283203125 154.36 C 702.4897727226727 154.36 698.6039303977273 150.47383206400002 698.6039303977273 145.68 Z" stroke-miterlimit="10"/></g><g transform="translate(-46,-45) scale(1,1)"><path fill="none" stroke="#000000" d="M 707.283203125 154.36 L 707.283203125 171.64" stroke-miterlimit="10"/></g><g transform="translate(-46,-45) scale(1,1)"><path fill="none" stroke="#000000" d="M 698.0933849431818 160.84 L 716.4730213068182 160.84" stroke-miterlimit="10"/></g><g transform="translate(-46,-45) scale(1,1)"><path fill="none" stroke="#000000" d="M 707.283203125 171.64 L 694.5195667613636 189" stroke-miterlimit="10"/></g><g transform="translate(-46,-45) scale(1,1)"><path fill="none" stroke="#000000" d="M 707.283203125 171.64 L 720.0468394886364 189" stroke-miterlimit="10"/></g><g transform="translate(-46,-45) scale(1,1)"><g><path fill="none" stroke="none"/><text fill="#000000" stroke="none" font-family="Arial" font-size="10px" font-style="normal" font-weight="bold" text-decoration="none" x="690.61328125" y="205">Cliente</text></g></g><g transform="translate(-46,-45) scale(1,1)"><path fill="none" stroke="#000000" d="M 679 193 L 537 287" stroke-miterlimit="10"/></g><g transform="translate(-46,-45) scale(1,1)"><path fill="#ffffff" stroke="none" d="M 698.6039303977273 336.68 C 698.6039303977273 331.886167936 702.4897727226727 328 707.283203125 328 C 712.0766335273273 328 715.9624758522727 331.886167936 715.9624758522727 336.68 C 715.9624758522727 341.473832064 712.0766335273273 345.36 707.283203125 345.36 C 702.4897727226727 345.36 698.6039303977273 341.473832064 698.6039303977273 336.68 Z"/></g><g transform="translate(-46,-45) scale(1,1)"><path fill="none" stroke="#000000" d="M 698.6039303977273 336.68 C 698.6039303977273 331.886167936 702.4897727226727 328 707.283203125 328 C 712.0766335273273 328 715.9624758522727 331.886167936 715.9624758522727 336.68 C 715.9624758522727 341.473832064 712.0766335273273 345.36 707.283203125 345.36 C 702.4897727226727 345.36 698.6039303977273 341.473832064 698.6039303977273 336.68 Z" stroke-miterlimit="10"/></g><g transform="translate(-46,-45) scale(1,1)"><path fill="none" stroke="#000000" d="M 707.283203125 345.36 L 707.283203125 362.64" stroke-miterlimit="10"/></g><g transform="translate(-46,-45) scale(1,1)"><path fill="none" stroke="#000000" d="M 698.0933849431818 351.84 L 716.4730213068182 351.84" stroke-miterlimit="10"/></g><g transform="translate(-46,-45) scale(1,1)"><path fill="none" stroke="#000000" d="M 707.283203125 362.64 L 694.5195667613636 380" stroke-miterlimit="10"/></g><g transform="translate(-46,-45) scale(1,1)"><path fill="none" stroke="#000000" d="M 707.283203125 362.64 L 720.0468394886364 380" stroke-miterlimit="10"/></g><g transform="translate(-46,-45) scale(1,1)"><g><path fill="none" stroke="none"/><text fill="#000000" stroke="none" font-family="Arial" font-size="10px" font-style="normal" font-weight="bold" text-decoration="none" x="684.5" y="396">Vendedor</text></g></g><g transform="translate(-46,-45) scale(1,1)"><path fill="none" stroke="#000000" d="M 679 394 L 544 536 L 419 529" stroke-miterlimit="10"/></g><g transform="translate(-46,-45) scale(1,1)"><path fill="none" stroke="#000000" d="M 680 404 L 552 592 L 420 585" stroke-miterlimit="10"/></g><g transform="translate(-46,-45) scale(1,1)"><path fill="none" stroke="#000000" d="M 112 342 L 216 208 L 310 162" stroke-miterlimit="10"/></g><g transform="translate(-46,-45) scale(1,1)"><path fill="none" stroke="#000000" d="M 112 354 L 224 256 L 309 218" stroke-miterlimit="10"/></g><g transform="translate(-46,-45) scale(1,1)"><path fill="none" stroke="#000000" d="M 112 362 L 232 288 L 312 265" stroke-miterlimit="10"/></g><g transform="translate(-46,-45) scale(1,1)"><path fill="none" stroke="#000000" d="M 112 369 L 226 328 L 297 316" stroke-miterlimit="10"/></g><g transform="translate(-46,-45) scale(1,1)"><path fill="none" stroke="#000000" d="M 112 375 L 224 360 L 297 361" stroke-miterlimit="10"/></g><g transform="translate(-46,-45) scale(1,1)"><path fill="none" stroke="#000000" d="M 112 385 L 224 408 L 303 413" stroke-miterlimit="10"/></g><g transform="translate(-46,-45) scale(1,1)"><path fill="none" stroke="#000000" d="M 112 391 L 208 432 L 312 459" stroke-miterlimit="10"/></g><g transform="translate(-46,-45) scale(1,1)"><path fill="none" stroke="#000000" d="M 112 396 L 224 464 L 308 503" stroke-miterlimit="10"/></g><g transform="translate(-46,-45) scale(1,1)"><path fill="none" stroke="#000000" d="M 112 408 L 224 520 L 307 558" stroke-miterlimit="10"/></g><g transform="translate(-46,-45) scale(1,1)"><path fill="none" stroke="#000000" d="M 111 418 L 200 544 L 319 613" stroke-miterlimit="10"/></g><g transform="translate(-46,-45) scale(1,1)"><path fill="none" stroke="#000000" d="M 679 171 L 407 144" stroke-miterlimit="10"/></g><g transform="translate(-46,-45) scale(1,1)"><path fill="none" stroke="#000000" d="M 679 178 L 568 192 L 407 195" stroke-miterlimit="10"/></g><g transform="translate(-46,-45) scale(1,1)"><path fill="none" stroke="#000000" d="M 679 335 L 584 232 L 407 159" stroke-miterlimit="10"/></g><g transform="translate(-46,-45) scale(1,1)"><path fill="none" stroke="#000000" d="M 679 345 L 562 264 L 407 212" stroke-miterlimit="10"/></g><g transform="translate(-46,-45) scale(1,1)"><path fill="#C0C0C0" stroke="none" d="M 466 373 C 466 360.8497344 490.4004784 351 520.5 351 C 550.5995216 351 575 360.8497344 575 373 C 575 385.1502656 550.5995216 395 520.5 395 C 490.4004784 395 466 385.1502656 466 373 Z" opacity="0.2"/></g><g transform="translate(-46,-45) scale(1,1)"><path fill="#ffffff" stroke="none" d="M 459 366 C 459 353.8497344 483.4004784 344 513.5 344 C 543.5995216 344 568 353.8497344 568 366 C 568 378.1502656 543.5995216 388 513.5 388 C 483.4004784 388 459 378.1502656 459 366 Z"/></g><g transform="translate(-46,-45) scale(1,1)"><path fill="none" stroke="#000000" d="M 459 366 C 459 353.8497344 483.4004784 344 513.5 344 C 543.5995216 344 568 353.8497344 568 366 C 568 378.1502656 543.5995216 388 513.5 388 C 483.4004784 388 459 378.1502656 459 366 Z" stroke-miterlimit="10"/></g><g transform="translate(-46,-45) scale(1,1)"><g><path fill="none" stroke="none"/><text fill="#000000" stroke="none" font-family="Arial" font-size="10px" font-style="normal" font-weight="bold" text-decoration="none" x="485.98779296875" y="365">CU09-Crear</text><text fill="#000000" stroke="none" font-family="Arial" font-size="10px" font-style="normal" font-weight="bold" text-decoration="none" x="479.330078125" y="375">Administrador</text></g></g><g transform="translate(-46,-45) scale(1,1)"><path fill="none" stroke="#000000" d="M 479 389 L 392 448" stroke-miterlimit="10" stroke-dasharray="3"/></g><g transform="translate(-46,-45) scale(1,1)"><path fill="none" stroke="#000000" d="M 398.04830035212905 438.8120697188956 L 392 448 L 402.7736420004816 445.77994638680525" stroke-miterlimit="10"/></g><g transform="translate(-46,-45) scale(1,1)"><g><path fill="none" stroke="none"/><text fill="#000000" stroke="none" font-family="Arial" font-size="10px" font-style="normal" font-weight="normal" text-decoration="none" x="417.5" y="399">«extend»</text></g></g><g transform="translate(-46,-45) scale(1,1)"><path fill="#C0C0C0" stroke="none" d="M 475 429 C 475 416.8497344 495.147184 407 520 407 C 544.852816 407 565 416.8497344 565 429 C 565 441.1502656 544.852816 451 520 451 C 495.147184 451 475 441.1502656 475 429 Z" opacity="0.2"/></g><g transform="translate(-46,-45) scale(1,1)"><path fill="#ffffff" stroke="none" d="M 468 422 C 468 409.8497344 488.147184 400 513 400 C 537.852816 400 558 409.8497344 558 422 C 558 434.1502656 537.852816 444 513 444 C 488.147184 444 468 434.1502656 468 422 Z"/></g><g transform="translate(-46,-45) scale(1,1)"><path fill="none" stroke="#000000" d="M 468 422 C 468 409.8497344 488.147184 400 513 400 C 537.852816 400 558 409.8497344 558 422 C 558 434.1502656 537.852816 444 513 444 C 488.147184 444 468 434.1502656 468 422 Z" stroke-miterlimit="10"/></g><g transform="translate(-46,-45) scale(1,1)"><g><path fill="none" stroke="none"/><text fill="#000000" stroke="none" font-family="Arial" font-size="10px" font-style="normal" font-weight="bold" text-decoration="none" x="485.48779296875" y="421">CU10-Crear</text><text fill="#000000" stroke="none" font-family="Arial" font-size="10px" font-style="normal" font-weight="bold" text-decoration="none" x="496.330078125" y="431">Cliente</text></g></g><g transform="translate(-46,-45) scale(1,1)"><path fill="none" stroke="#000000" d="M 467 437 L 404 456" stroke-miterlimit="10" stroke-dasharray="3"/></g><g transform="translate(-46,-45) scale(1,1)"><path fill="none" stroke="#000000" d="M 412.51435239526825 449.0353892219888 L 404 456 L 414.94527982556275 457.09583280664947" stroke-miterlimit="10"/></g><g transform="translate(-46,-45) scale(1,1)"><g><path fill="none" stroke="none"/><text fill="#000000" stroke="none" font-family="Arial" font-size="10px" font-style="normal" font-weight="normal" text-decoration="none" x="440.5" y="455">«extend»</text></g></g><g transform="translate(-46,-45) scale(1,1)"><path fill="#C0C0C0" stroke="none" d="M 475 501 C 475 488.8497344 495.147184 479 520 479 C 544.852816 479 565 488.8497344 565 501 C 565 513.1502656 544.852816 523 520 523 C 495.147184 523 475 513.1502656 475 501 Z" opacity="0.2"/></g><g transform="translate(-46,-45) scale(1,1)"><path fill="#ffffff" stroke="none" d="M 468 494 C 468 481.8497344 488.147184 472 513 472 C 537.852816 472 558 481.8497344 558 494 C 558 506.1502656 537.852816 516 513 516 C 488.147184 516 468 506.1502656 468 494 Z"/></g><g transform="translate(-46,-45) scale(1,1)"><path fill="none" stroke="#000000" d="M 468 494 C 468 481.8497344 488.147184 472 513 472 C 537.852816 472 558 481.8497344 558 494 C 558 506.1502656 537.852816 516 513 516 C 488.147184 516 468 506.1502656 468 494 Z" stroke-miterlimit="10"/></g><g transform="translate(-46,-45) scale(1,1)"><g><path fill="none" stroke="none"/><text fill="#000000" stroke="none" font-family="Arial" font-size="10px" font-style="normal" font-weight="bold" text-decoration="none" x="485.763671875" y="493">CU11-Crear</text><text fill="#000000" stroke="none" font-family="Arial" font-size="10px" font-style="normal" font-weight="bold" text-decoration="none" x="490.216796875" y="503">Vendedor</text></g></g><g transform="translate(-46,-45) scale(1,1)"><path fill="none" stroke="#000000" d="M 467 487 L 404 478" stroke-miterlimit="10" stroke-dasharray="3"/></g><g transform="translate(-46,-45) scale(1,1)"><path fill="none" stroke="#000000" d="M 414.6558505397089 475.2700092902383 L 404 478 L 413.46521911938726 483.60442923248974" stroke-miterlimit="10"/></g><g transform="translate(-46,-45) scale(1,1)"><g><path fill="none" stroke="none"/><text fill="#000000" stroke="none" font-family="Arial" font-size="10px" font-style="normal" font-weight="normal" text-decoration="none" x="413.5" y="495">«extend»</text></g></g></g></svg>