<svg version="1.1" xmlns="http://www.w3.org/2000/svg" xmlns:xlink="http://www.w3.org/1999/xlink" width="642.56640625" height="668"><defs/><g><text fill="#eeeeee" stroke="none" font-family="Arial" font-size="24px" font-style="normal" font-weight="normal" text-decoration="none" x="0" y="0">UNREGISTERED</text><text fill="#eeeeee" stroke="none" font-family="Arial" font-size="24px" font-style="normal" font-weight="normal" text-decoration="none" x="0" y="30">UNREGISTERED</text><text fill="#eeeeee" stroke="none" font-family="Arial" font-size="24px" font-style="normal" font-weight="normal" text-decoration="none" x="0" y="60">UNREGISTERED</text><text fill="#eeeeee" stroke="none" font-family="Arial" font-size="24px" font-style="normal" font-weight="normal" text-decoration="none" x="0" y="90">UNREGISTERED</text><text fill="#eeeeee" stroke="none" font-family="Arial" font-size="24px" font-style="normal" font-weight="normal" text-decoration="none" x="0" y="120">UNREGISTERED</text><text fill="#eeeeee" stroke="none" font-family="Arial" font-size="24px" font-style="normal" font-weight="normal" text-decoration="none" x="0" y="150">UNREGISTERED</text><text fill="#eeeeee" stroke="none" font-family="Arial" font-size="24px" font-style="normal" font-weight="normal" text-decoration="none" x="0" y="180">UNREGISTERED</text><text fill="#eeeeee" stroke="none" font-family="Arial" font-size="24px" font-style="normal" font-weight="normal" text-decoration="none" x="0" y="210">UNREGISTERED</text><text fill="#eeeeee" stroke="none" font-family="Arial" font-size="24px" font-style="normal" font-weight="normal" text-decoration="none" x="0" y="240">UNREGISTERED</text><text fill="#eeeeee" stroke="none" font-family="Arial" font-size="24px" font-style="normal" font-weight="normal" text-decoration="none" x="0" y="270">UNREGISTERED</text><text fill="#eeeeee" stroke="none" font-family="Arial" font-size="24px" font-style="normal" font-weight="normal" text-decoration="none" x="0" y="300">UNREGISTERED</text><text fill="#eeeeee" stroke="none" font-family="Arial" font-size="24px" font-style="normal" font-weight="normal" text-decoration="none" x="0" y="330">UNREGISTERED</text><text fill="#eeeeee" stroke="none" font-family="Arial" font-size="24px" font-style="normal" font-weight="normal" text-decoration="none" x="0" y="360">UNREGISTERED</text><text fill="#eeeeee" stroke="none" font-family="Arial" font-size="24px" font-style="normal" font-weight="normal" text-decoration="none" x="0" y="390">UNREGISTERED</text><text fill="#eeeeee" stroke="none" font-family="Arial" font-size="24px" font-style="normal" font-weight="normal" text-decoration="none" x="0" y="420">UNREGISTERED</text><text fill="#eeeeee" stroke="none" font-family="Arial" font-size="24px" font-style="normal" font-weight="normal" text-decoration="none" x="0" y="450">UNREGISTERED</text><text fill="#eeeeee" stroke="none" font-family="Arial" font-size="24px" font-style="normal" font-weight="normal" text-decoration="none" x="0" y="480">UNREGISTERED</text><text fill="#eeeeee" stroke="none" font-family="Arial" font-size="24px" font-style="normal" font-weight="normal" text-decoration="none" x="0" y="510">UNREGISTERED</text><text fill="#eeeeee" stroke="none" font-family="Arial" font-size="24px" font-style="normal" font-weight="normal" text-decoration="none" x="0" y="540">UNREGISTERED</text><text fill="#eeeeee" stroke="none" font-family="Arial" font-size="24px" font-style="normal" font-weight="normal" text-decoration="none" x="0" y="570">UNREGISTERED</text><text fill="#eeeeee" stroke="none" font-family="Arial" font-size="24px" font-style="normal" font-weight="normal" text-decoration="none" x="0" y="600">UNREGISTERED</text><text fill="#eeeeee" stroke="none" font-family="Arial" font-size="24px" font-style="normal" font-weight="normal" text-decoration="none" x="0" y="630">UNREGISTERED</text><text fill="#eeeeee" stroke="none" font-family="Arial" font-size="24px" font-style="normal" font-weight="normal" text-decoration="none" x="0" y="660">UNREGISTERED</text><text fill="#eeeeee" stroke="none" font-family="Arial" font-size="24px" font-style="normal" font-weight="normal" text-decoration="none" x="200" y="0">UNREGISTERED</text><text fill="#eeeeee" stroke="none" font-family="Arial" font-size="24px" font-style="normal" font-weight="normal" text-decoration="none" x="200" y="30">UNREGISTERED</text><text fill="#eeeeee" stroke="none" font-family="Arial" font-size="24px" font-style="normal" font-weight="normal" text-decoration="none" x="200" y="60">UNREGISTERED</text><text fill="#eeeeee" stroke="none" font-family="Arial" font-size="24px" font-style="normal" font-weight="normal" text-decoration="none" x="200" y="90">UNREGISTERED</text><text fill="#eeeeee" stroke="none" font-family="Arial" font-size="24px" font-style="normal" font-weight="normal" text-decoration="none" x="200" y="120">UNREGISTERED</text><text fill="#eeeeee" stroke="none" font-family="Arial" font-size="24px" font-style="normal" font-weight="normal" text-decoration="none" x="200" y="150">UNREGISTERED</text><text fill="#eeeeee" stroke="none" font-family="Arial" font-size="24px" font-style="normal" font-weight="normal" text-decoration="none" x="200" y="180">UNREGISTERED</text><text fill="#eeeeee" stroke="none" font-family="Arial" font-size="24px" font-style="normal" font-weight="normal" text-decoration="none" x="200" y="210">UNREGISTERED</text><text fill="#eeeeee" stroke="none" font-family="Arial" font-size="24px" font-style="normal" font-weight="normal" text-decoration="none" x="200" y="240">UNREGISTERED</text><text fill="#eeeeee" stroke="none" font-family="Arial" font-size="24px" font-style="normal" font-weight="normal" text-decoration="none" x="200" y="270">UNREGISTERED</text><text fill="#eeeeee" stroke="none" font-family="Arial" font-size="24px" font-style="normal" font-weight="normal" text-decoration="none" x="200" y="300">UNREGISTERED</text><text fill="#eeeeee" stroke="none" font-family="Arial" font-size="24px" font-style="normal" font-weight="normal" text-decoration="none" x="200" y="330">UNREGISTERED</text><text fill="#eeeeee" stroke="none" font-family="Arial" font-size="24px" font-style="normal" font-weight="normal" text-decoration="none" x="200" y="360">UNREGISTERED</text><text fill="#eeeeee" stroke="none" font-family="Arial" font-size="24px" font-style="normal" font-weight="normal" text-decoration="none" x="200" y="390">UNREGISTERED</text><text fill="#eeeeee" stroke="none" font-family="Arial" font-size="24px" font-style="normal" font-weight="normal" text-decoration="none" x="200" y="420">UNREGISTERED</text><text fill="#eeeeee" stroke="none" font-family="Arial" font-size="24px" font-style="normal" font-weight="normal" text-decoration="none" x="200" y="450">UNREGISTERED</text><text fill="#eeeeee" stroke="none" font-family="Arial" font-size="24px" font-style="normal" font-weight="normal" text-decoration="none" x="200" y="480">UNREGISTERED</text><text fill="#eeeeee" stroke="none" font-family="Arial" font-size="24px" font-style="normal" font-weight="normal" text-decoration="none" x="200" y="510">UNREGISTERED</text><text fill="#eeeeee" stroke="none" font-family="Arial" font-size="24px" font-style="normal" font-weight="normal" text-decoration="none" x="200" y="540">UNREGISTERED</text><text fill="#eeeeee" stroke="none" font-family="Arial" font-size="24px" font-style="normal" font-weight="normal" text-decoration="none" x="200" y="570">UNREGISTERED</text><text fill="#eeeeee" stroke="none" font-family="Arial" font-size="24px" font-style="normal" font-weight="normal" text-decoration="none" x="200" y="600">UNREGISTERED</text><text fill="#eeeeee" stroke="none" font-family="Arial" font-size="24px" font-style="normal" font-weight="normal" text-decoration="none" x="200" y="630">UNREGISTERED</text><text fill="#eeeeee" stroke="none" font-family="Arial" font-size="24px" font-style="normal" font-weight="normal" text-decoration="none" x="200" y="660">UNREGISTERED</text><text fill="#eeeeee" stroke="none" font-family="Arial" font-size="24px" font-style="normal" font-weight="normal" text-decoration="none" x="400" y="0">UNREGISTERED</text><text fill="#eeeeee" stroke="none" font-family="Arial" font-size="24px" font-style="normal" font-weight="normal" text-decoration="none" x="400" y="30">UNREGISTERED</text><text fill="#eeeeee" stroke="none" font-family="Arial" font-size="24px" font-style="normal" font-weight="normal" text-decoration="none" x="400" y="60">UNREGISTERED</text><text fill="#eeeeee" stroke="none" font-family="Arial" font-size="24px" font-style="normal" font-weight="normal" text-decoration="none" x="400" y="90">UNREGISTERED</text><text fill="#eeeeee" stroke="none" font-family="Arial" font-size="24px" font-style="normal" font-weight="normal" text-decoration="none" x="400" y="120">UNREGISTERED</text><text fill="#eeeeee" stroke="none" font-family="Arial" font-size="24px" font-style="normal" font-weight="normal" text-decoration="none" x="400" y="150">UNREGISTERED</text><text fill="#eeeeee" stroke="none" font-family="Arial" font-size="24px" font-style="normal" font-weight="normal" text-decoration="none" x="400" y="180">UNREGISTERED</text><text fill="#eeeeee" stroke="none" font-family="Arial" font-size="24px" font-style="normal" font-weight="normal" text-decoration="none" x="400" y="210">UNREGISTERED</text><text fill="#eeeeee" stroke="none" font-family="Arial" font-size="24px" font-style="normal" font-weight="normal" text-decoration="none" x="400" y="240">UNREGISTERED</text><text fill="#eeeeee" stroke="none" font-family="Arial" font-size="24px" font-style="normal" font-weight="normal" text-decoration="none" x="400" y="270">UNREGISTERED</text><text fill="#eeeeee" stroke="none" font-family="Arial" font-size="24px" font-style="normal" font-weight="normal" text-decoration="none" x="400" y="300">UNREGISTERED</text><text fill="#eeeeee" stroke="none" font-family="Arial" font-size="24px" font-style="normal" font-weight="normal" text-decoration="none" x="400" y="330">UNREGISTERED</text><text fill="#eeeeee" stroke="none" font-family="Arial" font-size="24px" font-style="normal" font-weight="normal" text-decoration="none" x="400" y="360">UNREGISTERED</text><text fill="#eeeeee" stroke="none" font-family="Arial" font-size="24px" font-style="normal" font-weight="normal" text-decoration="none" x="400" y="390">UNREGISTERED</text><text fill="#eeeeee" stroke="none" font-family="Arial" font-size="24px" font-style="normal" font-weight="normal" text-decoration="none" x="400" y="420">UNREGISTERED</text><text fill="#eeeeee" stroke="none" font-family="Arial" font-size="24px" font-style="normal" font-weight="normal" text-decoration="none" x="400" y="450">UNREGISTERED</text><text fill="#eeeeee" stroke="none" font-family="Arial" font-size="24px" font-style="normal" font-weight="normal" text-decoration="none" x="400" y="480">UNREGISTERED</text><text fill="#eeeeee" stroke="none" font-family="Arial" font-size="24px" font-style="normal" font-weight="normal" text-decoration="none" x="400" y="510">UNREGISTERED</text><text fill="#eeeeee" stroke="none" font-family="Arial" font-size="24px" font-style="normal" font-weight="normal" text-decoration="none" x="400" y="540">UNREGISTERED</text><text fill="#eeeeee" stroke="none" font-family="Arial" font-size="24px" font-style="normal" font-weight="normal" text-decoration="none" x="400" y="570">UNREGISTERED</text><text fill="#eeeeee" stroke="none" font-family="Arial" font-size="24px" font-style="normal" font-weight="normal" text-decoration="none" x="400" y="600">UNREGISTERED</text><text fill="#eeeeee" stroke="none" font-family="Arial" font-size="24px" font-style="normal" font-weight="normal" text-decoration="none" x="400" y="630">UNREGISTERED</text><text fill="#eeeeee" stroke="none" font-family="Arial" font-size="24px" font-style="normal" font-weight="normal" text-decoration="none" x="400" y="660">UNREGISTERED</text><text fill="#eeeeee" stroke="none" font-family="Arial" font-size="24px" font-style="normal" font-weight="normal" text-decoration="none" x="600" y="0">UNREGISTERED</text><text fill="#eeeeee" stroke="none" font-family="Arial" font-size="24px" font-style="normal" font-weight="normal" text-decoration="none" x="600" y="30">UNREGISTERED</text><text fill="#eeeeee" stroke="none" font-family="Arial" font-size="24px" font-style="normal" font-weight="normal" text-decoration="none" x="600" y="60">UNREGISTERED</text><text fill="#eeeeee" stroke="none" font-family="Arial" font-size="24px" font-style="normal" font-weight="normal" text-decoration="none" x="600" y="90">UNREGISTERED</text><text fill="#eeeeee" stroke="none" font-family="Arial" font-size="24px" font-style="normal" font-weight="normal" text-decoration="none" x="600" y="120">UNREGISTERED</text><text fill="#eeeeee" stroke="none" font-family="Arial" font-size="24px" font-style="normal" font-weight="normal" text-decoration="none" x="600" y="150">UNREGISTERED</text><text fill="#eeeeee" stroke="none" font-family="Arial" font-size="24px" font-style="normal" font-weight="normal" text-decoration="none" x="600" y="180">UNREGISTERED</text><text fill="#eeeeee" stroke="none" font-family="Arial" font-size="24px" font-style="normal" font-weight="normal" text-decoration="none" x="600" y="210">UNREGISTERED</text><text fill="#eeeeee" stroke="none" font-family="Arial" font-size="24px" font-style="normal" font-weight="normal" text-decoration="none" x="600" y="240">UNREGISTERED</text><text fill="#eeeeee" stroke="none" font-family="Arial" font-size="24px" font-style="normal" font-weight="normal" text-decoration="none" x="600" y="270">UNREGISTERED</text><text fill="#eeeeee" stroke="none" font-family="Arial" font-size="24px" font-style="normal" font-weight="normal" text-decoration="none" x="600" y="300">UNREGISTERED</text><text fill="#eeeeee" stroke="none" font-family="Arial" font-size="24px" font-style="normal" font-weight="normal" text-decoration="none" x="600" y="330">UNREGISTERED</text><text fill="#eeeeee" stroke="none" font-family="Arial" font-size="24px" font-style="normal" font-weight="normal" text-decoration="none" x="600" y="360">UNREGISTERED</text><text fill="#eeeeee" stroke="none" font-family="Arial" font-size="24px" font-style="normal" font-weight="normal" text-decoration="none" x="600" y="390">UNREGISTERED</text><text fill="#eeeeee" stroke="none" font-family="Arial" font-size="24px" font-style="normal" font-weight="normal" text-decoration="none" x="600" y="420">UNREGISTERED</text><text fill="#eeeeee" stroke="none" font-family="Arial" font-size="24px" font-style="normal" font-weight="normal" text-decoration="none" x="600" y="450">UNREGISTERED</text><text fill="#eeeeee" stroke="none" font-family="Arial" font-size="24px" font-style="normal" font-weight="normal" text-decoration="none" x="600" y="480">UNREGISTERED</text><text fill="#eeeeee" stroke="none" font-family="Arial" font-size="24px" font-style="normal" font-weight="normal" text-decoration="none" x="600" y="510">UNREGISTERED</text><text fill="#eeeeee" stroke="none" font-family="Arial" font-size="24px" font-style="normal" font-weight="normal" text-decoration="none" x="600" y="540">UNREGISTERED</text><text fill="#eeeeee" stroke="none" font-family="Arial" font-size="24px" font-style="normal" font-weight="normal" text-decoration="none" x="600" y="570">UNREGISTERED</text><text fill="#eeeeee" stroke="none" font-family="Arial" font-size="24px" font-style="normal" font-weight="normal" text-decoration="none" x="600" y="600">UNREGISTERED</text><text fill="#eeeeee" stroke="none" font-family="Arial" font-size="24px" font-style="normal" font-weight="normal" text-decoration="none" x="600" y="630">UNREGISTERED</text><text fill="#eeeeee" stroke="none" font-family="Arial" font-size="24px" font-style="normal" font-weight="normal" text-decoration="none" x="600" y="660">UNREGISTERED</text><g transform="translate(-46,-45) scale(1,1)"><path fill="none" stroke="#000000" d="M 136 55 L 584 55 L 584 703 L 136 703 L 136 55" stroke-miterlimit="10"/></g><g transform="translate(-46,-45) scale(1,1)"><path fill="#ffffff" stroke="none" d="M 136 55 L 136 74 L 237.595703125 74 L 247.095703125 64.5 L 247.095703125 55 L 136 55"/></g><g transform="translate(-46,-45) scale(1,1)"><path fill="none" stroke="#000000" d="M 136 55 L 136 74 L 237.595703125 74 L 247.095703125 64.5 L 247.095703125 55 L 136 55 L 136 55" stroke-miterlimit="10"/></g><g transform="translate(-46,-45) scale(1,1)"><g><path fill="none" stroke="none"/><text fill="#000000" stroke="none" font-family="Arial" font-size="10px" font-style="normal" font-weight="normal" text-decoration="none" x="157.5615234375" y="68.5">Módulo Usuarios</text></g></g><g transform="translate(-46,-45) scale(1,1)"><g><path fill="none" stroke="none"/><text fill="#000000" stroke="none" font-family="Arial" font-size="10px" font-style="normal" font-weight="bold" text-decoration="none" x="140.44580078125" y="67">uc</text></g></g><g transform="translate(-46,-45) scale(1,1)"><path fill="#ffffff" stroke="none" d="M 74.60393039772727 350.68 C 74.60393039772727 345.886167936 78.48977272267273 342 83.283203125 342 C 88.07663352732727 342 91.96247585227273 345.886167936 91.96247585227273 350.68 C 91.96247585227273 355.473832064 88.07663352732727 359.36 83.283203125 359.36 C 78.48977272267273 359.36 74.60393039772727 355.473832064 74.60393039772727 350.68 Z"/></g><g transform="translate(-46,-45) scale(1,1)"><path fill="none" stroke="#000000" d="M 74.60393039772727 350.68 C 74.60393039772727 345.886167936 78.48977272267273 342 83.283203125 342 C 88.07663352732727 342 91.96247585227273 345.886167936 91.96247585227273 350.68 C 91.96247585227273 355.473832064 88.07663352732727 359.36 83.283203125 359.36 C 78.48977272267273 359.36 74.60393039772727 355.473832064 74.60393039772727 350.68 Z" stroke-miterlimit="10"/></g><g transform="translate(-46,-45) scale(1,1)"><path fill="none" stroke="#000000" d="M 83.283203125 359.36 L 83.283203125 376.64" stroke-miterlimit="10"/></g><g transform="translate(-46,-45) scale(1,1)"><path fill="none" stroke="#000000" d="M 74.09338494318182 365.84 L 92.47302130681818 365.84" stroke-miterlimit="10"/></g><g transform="translate(-46,-45) scale(1,1)"><path fill="none" stroke="#000000" d="M 83.283203125 376.64 L 70.51956676136363 394" stroke-miterlimit="10"/></g><g transform="translate(-46,-45) scale(1,1)"><path fill="none" stroke="#000000" d="M 83.283203125 376.64 L 96.04683948863637 394" stroke-miterlimit="10"/></g><g transform="translate(-46,-45) scale(1,1)"><g><path fill="none" stroke="none"/><text fill="#000000" stroke="none" font-family="Arial" font-size="10px" font-style="normal" font-weight="bold" text-decoration="none" x="67.72900390625" y="410">Admin</text></g></g><g transform="translate(-46,-45) scale(1,1)"><path fill="#C0C0C0" stroke="none" d="M 317 146 C 317 132.7451648 338.266472 122 364.5 122 C 390.733528 122 412 132.7451648 412 146 C 412 159.2548352 390.733528 170 364.5 170 C 338.266472 170 317 159.2548352 317 146 Z" opacity="0.2"/></g><g transform="translate(-46,-45) scale(1,1)"><path fill="#ffffff" stroke="none" d="M 310 139 C 310 125.7451648 331.266472 115 357.5 115 C 383.733528 115 405 125.7451648 405 139 C 405 152.2548352 383.733528 163 357.5 163 C 331.266472 163 310 152.2548352 310 139 Z"/></g><g transform="translate(-46,-45) scale(1,1)"><path fill="none" stroke="#000000" d="M 310 139 C 310 125.7451648 331.266472 115 357.5 115 C 383.733528 115 405 125.7451648 405 139 C 405 152.2548352 383.733528 163 357.5 163 C 331.266472 163 310 152.2548352 310 139 Z" stroke-miterlimit="10"/></g><g transform="translate(-46,-45) scale(1,1)"><g><path fill="none" stroke="none"/><text fill="#000000" stroke="none" font-family="Arial" font-size="10px" font-style="normal" font-weight="bold" text-decoration="none" x="328.32275390625" y="138">CU01-Iniciar</text><text fill="#000000" stroke="none" font-family="Arial" font-size="10px" font-style="normal" font-weight="bold" text-decoration="none" x="341.10595703125" y="148.5">Sesión</text></g></g><g transform="translate(-46,-45) scale(1,1)"><path fill="#C0C0C0" stroke="none" d="M 455 95 C 455 81.7451648 482.5344848 71 516.5 71 C 550.4655152 71 578 81.7451648 578 95 C 578 108.2548352 550.4655152 119 516.5 119 C 482.5344848 119 455 108.2548352 455 95 Z" opacity="0.2"/></g><g transform="translate(-46,-45) scale(1,1)"><path fill="#ffffff" stroke="none" d="M 448 88 C 448 74.7451648 475.5344848 64 509.5 64 C 543.4655152 64 571 74.7451648 571 88 C 571 101.2548352 543.4655152 112 509.5 112 C 475.5344848 112 448 101.2548352 448 88 Z"/></g><g transform="translate(-46,-45) scale(1,1)"><path fill="none" stroke="#000000" d="M 448 88 C 448 74.7451648 475.5344848 64 509.5 64 C 543.4655152 64 571 74.7451648 571 88 C 571 101.2548352 543.4655152 112 509.5 112 C 475.5344848 112 448 101.2548352 448 88 Z" stroke-miterlimit="10"/></g><g transform="translate(-46,-45) scale(1,1)"><g><path fill="none" stroke="none"/><text fill="#000000" stroke="none" font-family="Arial" font-size="10px" font-style="normal" font-weight="bold" text-decoration="none" x="470.31787109375" y="87">CU02-Recuperar</text><text fill="#000000" stroke="none" font-family="Arial" font-size="10px" font-style="normal" font-weight="bold" text-decoration="none" x="481.99267578125" y="97.5">Contraseña</text></g></g><g transform="translate(-46,-45) scale(1,1)"><path fill="none" stroke="#000000" d="M 447 109 L 406 123" stroke-miterlimit="10" stroke-dasharray="3"/></g><g transform="translate(-46,-45) scale(1,1)"><path fill="none" stroke="#000000" d="M 414.2571661006004 115.73231756423718 L 406 123 L 416.9777256769565 123.69967060927998" stroke-miterlimit="10"/></g><g transform="translate(-46,-45) scale(1,1)"><g><path fill="none" stroke="none"/><text fill="#000000" stroke="none" font-family="Arial" font-size="10px" font-style="normal" font-weight="normal" text-decoration="none" x="391.5" y="104">«extend»</text></g></g><g transform="translate(-46,-45) scale(1,1)"><path fill="#C0C0C0" stroke="none" d="M 316 203 C 316 190.8497344 337.4903296 181 364 181 C 390.5096704 181 412 190.8497344 412 203 C 412 215.1502656 390.5096704 225 364 225 C 337.4903296 225 316 215.1502656 316 203 Z" opacity="0.2"/></g><g transform="translate(-46,-45) scale(1,1)"><path fill="#ffffff" stroke="none" d="M 309 196 C 309 183.8497344 330.4903296 174 357 174 C 383.5096704 174 405 183.8497344 405 196 C 405 208.1502656 383.5096704 218 357 218 C 330.4903296 218 309 208.1502656 309 196 Z"/></g><g transform="translate(-46,-45) scale(1,1)"><path fill="none" stroke="#000000" d="M 309 196 C 309 183.8497344 330.4903296 174 357 174 C 383.5096704 174 405 183.8497344 405 196 C 405 208.1502656 383.5096704 218 357 218 C 330.4903296 218 309 208.1502656 309 196 Z" stroke-miterlimit="10"/></g><g transform="translate(-46,-45) scale(1,1)"><g><path fill="none" stroke="none"/><text fill="#000000" stroke="none" font-family="Arial" font-size="10px" font-style="normal" font-weight="bold" text-decoration="none" x="327.5419921875" y="195">CU03-Cerrar</text><text fill="#000000" stroke="none" font-family="Arial" font-size="10px" font-style="normal" font-weight="bold" text-decoration="none" x="340.60595703125" y="205.5">Sesión</text></g></g><g transform="translate(-46,-45) scale(1,1)"><path fill="#C0C0C0" stroke="none" d="M 319 258 C 319 245.8497344 339.147184 236 364 236 C 388.852816 236 409 245.8497344 409 258 C 409 270.1502656 388.852816 280 364 280 C 339.147184 280 319 270.1502656 319 258 Z" opacity="0.2"/></g><g transform="translate(-46,-45) scale(1,1)"><path fill="#ffffff" stroke="none" d="M 312 251 C 312 238.8497344 332.147184 229 357 229 C 381.852816 229 402 238.8497344 402 251 C 402 263.1502656 381.852816 273 357 273 C 332.147184 273 312 263.1502656 312 251 Z"/></g><g transform="translate(-46,-45) scale(1,1)"><path fill="none" stroke="#000000" d="M 312 251 C 312 238.8497344 332.147184 229 357 229 C 381.852816 229 402 238.8497344 402 251 C 402 263.1502656 381.852816 273 357 273 C 332.147184 273 312 263.1502656 312 251 Z" stroke-miterlimit="10"/></g><g transform="translate(-46,-45) scale(1,1)"><g><path fill="none" stroke="none"/><text fill="#000000" stroke="none" font-family="Arial" font-size="10px" font-style="normal" font-weight="bold" text-decoration="none" x="329.48779296875" y="250">CU04-Crear</text><text fill="#000000" stroke="none" font-family="Arial" font-size="10px" font-style="normal" font-weight="bold" text-decoration="none" x="348.94580078125" y="260">Rol</text></g></g><g transform="translate(-46,-45) scale(1,1)"><path fill="#C0C0C0" stroke="none" d="M 304 313 C 304 300.8497344 330.862912 291 364 291 C 397.137088 291 424 300.8497344 424 313 C 424 325.1502656 397.137088 335 364 335 C 330.862912 335 304 325.1502656 304 313 Z" opacity="0.2"/></g><g transform="translate(-46,-45) scale(1,1)"><path fill="#ffffff" stroke="none" d="M 297 306 C 297 293.8497344 323.862912 284 357 284 C 390.137088 284 417 293.8497344 417 306 C 417 318.1502656 390.137088 328 357 328 C 323.862912 328 297 318.1502656 297 306 Z"/></g><g transform="translate(-46,-45) scale(1,1)"><path fill="none" stroke="#000000" d="M 297 306 C 297 293.8497344 323.862912 284 357 284 C 390.137088 284 417 293.8497344 417 306 C 417 318.1502656 390.137088 328 357 328 C 323.862912 328 297 318.1502656 297 306 Z" stroke-miterlimit="10"/></g><g transform="translate(-46,-45) scale(1,1)"><g><path fill="none" stroke="none"/><text fill="#000000" stroke="none" font-family="Arial" font-size="10px" font-style="normal" font-weight="bold" text-decoration="none" x="319.216796875" y="305">CU05-Consultar</text><text fill="#000000" stroke="none" font-family="Arial" font-size="10px" font-style="normal" font-weight="bold" text-decoration="none" x="343.38427734375" y="315">Roles</text></g></g><g transform="translate(-46,-45) scale(1,1)"><path fill="#C0C0C0" stroke="none" d="M 304 368 C 304 355.8497344 331.0867696 346 364.5 346 C 397.9132304 346 425 355.8497344 425 368 C 425 380.1502656 397.9132304 390 364.5 390 C 331.0867696 390 304 380.1502656 304 368 Z" opacity="0.2"/></g><g transform="translate(-46,-45) scale(1,1)"><path fill="#ffffff" stroke="none" d="M 297 361 C 297 348.8497344 324.0867696 339 357.5 339 C 390.9132304 339 418 348.8497344 418 361 C 418 373.1502656 390.9132304 383 357.5 383 C 324.0867696 383 297 373.1502656 297 361 Z"/></g><g transform="translate(-46,-45) scale(1,1)"><path fill="none" stroke="#000000" d="M 297 361 C 297 348.8497344 324.0867696 339 357.5 339 C 390.9132304 339 418 348.8497344 418 361 C 418 373.1502656 390.9132304 383 357.5 383 C 324.0867696 383 297 373.1502656 297 361 Z" stroke-miterlimit="10"/></g><g transform="translate(-46,-45) scale(1,1)"><g><path fill="none" stroke="none"/><text fill="#000000" stroke="none" font-family="Arial" font-size="10px" font-style="normal" font-weight="bold" text-decoration="none" x="319.1552734375" y="360">CU06-Actualizar</text><text fill="#000000" stroke="none" font-family="Arial" font-size="10px" font-style="normal" font-weight="bold" text-decoration="none" x="343.88427734375" y="370">Roles</text></g></g><g transform="translate(-46,-45) scale(1,1)"><path fill="#C0C0C0" stroke="none" d="M 310 423 C 310 410.8497344 334.4004784 401 364.5 401 C 394.5995216 401 419 410.8497344 419 423 C 419 435.1502656 394.5995216 445 364.5 445 C 334.4004784 445 310 435.1502656 310 423 Z" opacity="0.2"/></g><g transform="translate(-46,-45) scale(1,1)"><path fill="#ffffff" stroke="none" d="M 303 416 C 303 403.8497344 327.4004784 394 357.5 394 C 387.5995216 394 412 403.8497344 412 416 C 412 428.1502656 387.5995216 438 357.5 438 C 327.4004784 438 303 428.1502656 303 416 Z"/></g><g transform="translate(-46,-45) scale(1,1)"><path fill="none" stroke="#000000" d="M 303 416 C 303 403.8497344 327.4004784 394 357.5 394 C 387.5995216 394 412 403.8497344 412 416 C 412 428.1502656 387.5995216 438 357.5 438 C 327.4004784 438 303 428.1502656 303 416 Z" stroke-miterlimit="10"/></g><g transform="translate(-46,-45) scale(1,1)"><g><path fill="none" stroke="none"/><text fill="#000000" stroke="none" font-family="Arial" font-size="10px" font-style="normal" font-weight="bold" text-decoration="none" x="323.32275390625" y="415">CU07-Eliminar</text><text fill="#000000" stroke="none" font-family="Arial" font-size="10px" font-style="normal" font-weight="bold" text-decoration="none" x="343.88427734375" y="425">Roles</text></g></g><g transform="translate(-46,-45) scale(1,1)"><path fill="#C0C0C0" stroke="none" d="M 319 478 C 319 465.8497344 339.147184 456 364 456 C 388.852816 456 409 465.8497344 409 478 C 409 490.1502656 388.852816 500 364 500 C 339.147184 500 319 490.1502656 319 478 Z" opacity="0.2"/></g><g transform="translate(-46,-45) scale(1,1)"><path fill="#ffffff" stroke="none" d="M 312 471 C 312 458.8497344 332.147184 449 357 449 C 381.852816 449 402 458.8497344 402 471 C 402 483.1502656 381.852816 493 357 493 C 332.147184 493 312 483.1502656 312 471 Z"/></g><g transform="translate(-46,-45) scale(1,1)"><path fill="none" stroke="#000000" d="M 312 471 C 312 458.8497344 332.147184 449 357 449 C 381.852816 449 402 458.8497344 402 471 C 402 483.1502656 381.852816 493 357 493 C 332.147184 493 312 483.1502656 312 471 Z" stroke-miterlimit="10"/></g><g transform="translate(-46,-45) scale(1,1)"><g><path fill="none" stroke="none"/><text fill="#000000" stroke="none" font-family="Arial" font-size="10px" font-style="normal" font-weight="bold" text-decoration="none" x="329.48779296875" y="470">CU08-Crear</text><text fill="#000000" stroke="none" font-family="Arial" font-size="10px" font-style="normal" font-weight="bold" text-decoration="none" x="338.38427734375" y="480">Usuario</text></g></g><g transform="translate(-46,-45) scale(1,1)"><path fill="#C0C0C0" stroke="none" d="M 308 533 C 308 520.8497344 333.0720512 511 364 511 C 394.9279488 511 420 520.8497344 420 533 C 420 545.1502656 394.9279488 555 364 555 C 333.0720512 555 308 545.1502656 308 533 Z" opacity="0.2"/></g><g transform="translate(-46,-45) scale(1,1)"><path fill="#ffffff" stroke="none" d="M 301 526 C 301 513.8497344 326.0720512 504 357 504 C 387.9279488 504 413 513.8497344 413 526 C 413 538.1502656 387.9279488 548 357 548 C 326.0720512 548 301 538.1502656 301 526 Z"/></g><g transform="translate(-46,-45) scale(1,1)"><path fill="none" stroke="#000000" d="M 301 526 C 301 513.8497344 326.0720512 504 357 504 C 387.9279488 504 413 513.8497344 413 526 C 413 538.1502656 387.9279488 548 357 548 C 326.0720512 548 301 538.1502656 301 526 Z" stroke-miterlimit="10"/></g><g transform="translate(-46,-45) scale(1,1)"><g><path fill="none" stroke="none"/><text fill="#000000" stroke="none" font-family="Arial" font-size="10px" font-style="normal" font-weight="bold" text-decoration="none" x="321.99755859375" y="525">CU9-Consultar</text><text fill="#000000" stroke="none" font-family="Arial" font-size="10px" font-style="normal" font-weight="bold" text-decoration="none" x="335.603515625" y="535">Usuarios</text></g></g><g transform="translate(-46,-45) scale(1,1)"><path fill="#C0C0C0" stroke="none" d="M 304 588 C 304 575.8497344 331.0867696 566 364.5 566 C 397.9132304 566 425 575.8497344 425 588 C 425 600.1502656 397.9132304 610 364.5 610 C 331.0867696 610 304 600.1502656 304 588 Z" opacity="0.2"/></g><g transform="translate(-46,-45) scale(1,1)"><path fill="#ffffff" stroke="none" d="M 297 581 C 297 568.8497344 324.0867696 559 357.5 559 C 390.9132304 559 418 568.8497344 418 581 C 418 593.1502656 390.9132304 603 357.5 603 C 324.0867696 603 297 593.1502656 297 581 Z"/></g><g transform="translate(-46,-45) scale(1,1)"><path fill="none" stroke="#000000" d="M 297 581 C 297 568.8497344 324.0867696 559 357.5 559 C 390.9132304 559 418 568.8497344 418 581 C 418 593.1502656 390.9132304 603 357.5 603 C 324.0867696 603 297 593.1502656 297 581 Z" stroke-miterlimit="10"/></g><g transform="translate(-46,-45) scale(1,1)"><g><path fill="none" stroke="none"/><text fill="#000000" stroke="none" font-family="Arial" font-size="10px" font-style="normal" font-weight="bold" text-decoration="none" x="319.1552734375" y="580">CU10-Actualizar</text><text fill="#000000" stroke="none" font-family="Arial" font-size="10px" font-style="normal" font-weight="bold" text-decoration="none" x="338.88427734375" y="590">Usuario</text></g></g><g transform="translate(-46,-45) scale(1,1)"><path fill="#C0C0C0" stroke="none" d="M 310 643 C 310 630.8497344 334.4004784 621 364.5 621 C 394.5995216 621 419 630.8497344 419 643 C 419 655.1502656 394.5995216 665 364.5 665 C 334.4004784 665 310 655.1502656 310 643 Z" opacity="0.2"/></g><g transform="translate(-46,-45) scale(1,1)"><path fill="#ffffff" stroke="none" d="M 303 636 C 303 623.8497344 327.4004784 614 357.5 614 C 387.5995216 614 412 623.8497344 412 636 C 412 648.1502656 387.5995216 658 357.5 658 C 327.4004784 658 303 648.1502656 303 636 Z"/></g><g transform="translate(-46,-45) scale(1,1)"><path fill="none" stroke="#000000" d="M 303 636 C 303 623.8497344 327.4004784 614 357.5 614 C 387.5995216 614 412 623.8497344 412 636 C 412 648.1502656 387.5995216 658 357.5 658 C 327.4004784 658 303 648.1502656 303 636 Z" stroke-miterlimit="10"/></g><g transform="translate(-46,-45) scale(1,1)"><g><path fill="none" stroke="none"/><text fill="#000000" stroke="none" font-family="Arial" font-size="10px" font-style="normal" font-weight="bold" text-decoration="none" x="323.5986328125" y="635">CU11-Eliminar</text><text fill="#000000" stroke="none" font-family="Arial" font-size="10px" font-style="normal" font-weight="bold" text-decoration="none" x="338.88427734375" y="645">Usuario</text></g></g><g transform="translate(-46,-45) scale(1,1)"><path fill="#C0C0C0" stroke="none" d="M 435 372.5 C 435 363.9395856 464.3253456 357 500.5 357 C 536.6746544 357 566 363.9395856 566 372.5 C 566 381.0604144 536.6746544 388 500.5 388 C 464.3253456 388 435 381.0604144 435 372.5 Z" opacity="0.2"/></g><g transform="translate(-46,-45) scale(1,1)"><path fill="#ffffff" stroke="none" d="M 428 365.5 C 428 356.9395856 457.3253456 350 493.5 350 C 529.6746544 350 559 356.9395856 559 365.5 C 559 374.0604144 529.6746544 381 493.5 381 C 457.3253456 381 428 374.0604144 428 365.5 Z"/></g><g transform="translate(-46,-45) scale(1,1)"><path fill="none" stroke="#000000" d="M 428 365.5 C 428 356.9395856 457.3253456 350 493.5 350 C 529.6746544 350 559 356.9395856 559 365.5 C 559 374.0604144 529.6746544 381 493.5 381 C 457.3253456 381 428 374.0604144 428 365.5 Z" stroke-miterlimit="10"/></g><g transform="translate(-46,-45) scale(1,1)"><g><path fill="none" stroke="none"/><text fill="#000000" stroke="none" font-family="Arial" font-size="10px" font-style="normal" font-weight="bold" text-decoration="none" x="451.537109375" y="369.5">CU12-Registrarse</text></g></g><g transform="translate(-46,-45) scale(1,1)"><path fill="#ffffff" stroke="none" d="M 642.6039303977273 145.68 C 642.6039303977273 140.886167936 646.4897727226727 137 651.283203125 137 C 656.0766335273273 137 659.9624758522727 140.886167936 659.9624758522727 145.68 C 659.9624758522727 150.47383206400002 656.0766335273273 154.36 651.283203125 154.36 C 646.4897727226727 154.36 642.6039303977273 150.47383206400002 642.6039303977273 145.68 Z"/></g><g transform="translate(-46,-45) scale(1,1)"><path fill="none" stroke="#000000" d="M 642.6039303977273 145.68 C 642.6039303977273 140.886167936 646.4897727226727 137 651.283203125 137 C 656.0766335273273 137 659.9624758522727 140.886167936 659.9624758522727 145.68 C 659.9624758522727 150.47383206400002 656.0766335273273 154.36 651.283203125 154.36 C 646.4897727226727 154.36 642.6039303977273 150.47383206400002 642.6039303977273 145.68 Z" stroke-miterlimit="10"/></g><g transform="translate(-46,-45) scale(1,1)"><path fill="none" stroke="#000000" d="M 651.283203125 154.36 L 651.283203125 171.64" stroke-miterlimit="10"/></g><g transform="translate(-46,-45) scale(1,1)"><path fill="none" stroke="#000000" d="M 642.0933849431818 160.84 L 660.4730213068182 160.84" stroke-miterlimit="10"/></g><g transform="translate(-46,-45) scale(1,1)"><path fill="none" stroke="#000000" d="M 651.283203125 171.64 L 638.5195667613636 189" stroke-miterlimit="10"/></g><g transform="translate(-46,-45) scale(1,1)"><path fill="none" stroke="#000000" d="M 651.283203125 171.64 L 664.0468394886364 189" stroke-miterlimit="10"/></g><g transform="translate(-46,-45) scale(1,1)"><g><path fill="none" stroke="none"/><text fill="#000000" stroke="none" font-family="Arial" font-size="10px" font-style="normal" font-weight="bold" text-decoration="none" x="634.61328125" y="205">Cliente</text></g></g><g transform="translate(-46,-45) scale(1,1)"><path fill="none" stroke="#000000" d="M 623 208 L 506 349" stroke-miterlimit="10"/></g><g transform="translate(-46,-45) scale(1,1)"><path fill="#ffffff" stroke="none" d="M 642.6039303977273 336.68 C 642.6039303977273 331.886167936 646.4897727226727 328 651.283203125 328 C 656.0766335273273 328 659.9624758522727 331.886167936 659.9624758522727 336.68 C 659.9624758522727 341.473832064 656.0766335273273 345.36 651.283203125 345.36 C 646.4897727226727 345.36 642.6039303977273 341.473832064 642.6039303977273 336.68 Z"/></g><g transform="translate(-46,-45) scale(1,1)"><path fill="none" stroke="#000000" d="M 642.6039303977273 336.68 C 642.6039303977273 331.886167936 646.4897727226727 328 651.283203125 328 C 656.0766335273273 328 659.9624758522727 331.886167936 659.9624758522727 336.68 C 659.9624758522727 341.473832064 656.0766335273273 345.36 651.283203125 345.36 C 646.4897727226727 345.36 642.6039303977273 341.473832064 642.6039303977273 336.68 Z" stroke-miterlimit="10"/></g><g transform="translate(-46,-45) scale(1,1)"><path fill="none" stroke="#000000" d="M 651.283203125 345.36 L 651.283203125 362.64" stroke-miterlimit="10"/></g><g transform="translate(-46,-45) scale(1,1)"><path fill="none" stroke="#000000" d="M 642.0933849431818 351.84 L 660.4730213068182 351.84" stroke-miterlimit="10"/></g><g transform="translate(-46,-45) scale(1,1)"><path fill="none" stroke="#000000" d="M 651.283203125 362.64 L 638.5195667613636 380" stroke-miterlimit="10"/></g><g transform="translate(-46,-45) scale(1,1)"><path fill="none" stroke="#000000" d="M 651.283203125 362.64 L 664.0468394886364 380" stroke-miterlimit="10"/></g><g transform="translate(-46,-45) scale(1,1)"><g><path fill="none" stroke="none"/><text fill="#000000" stroke="none" font-family="Arial" font-size="10px" font-style="normal" font-weight="bold" text-decoration="none" x="628.5" y="396">Vendedor</text></g></g><g transform="translate(-46,-45) scale(1,1)"><path fill="none" stroke="#000000" d="M 623 387 L 504 480 L 414 508" stroke-miterlimit="10"/></g><g transform="translate(-46,-45) scale(1,1)"><path fill="none" stroke="#000000" d="M 628 404 L 552 536 L 419 567" stroke-miterlimit="10"/></g><g transform="translate(-46,-45) scale(1,1)"><path fill="none" stroke="#000000" d="M 623 365 L 560 365" stroke-miterlimit="10"/></g><g transform="translate(-46,-45) scale(1,1)"><path fill="none" stroke="#000000" d="M 112 342 L 216 208 L 309 162" stroke-miterlimit="10"/></g><g transform="translate(-46,-45) scale(1,1)"><path fill="none" stroke="#000000" d="M 112 354 L 224 256 L 308 218" stroke-miterlimit="10"/></g><g transform="translate(-46,-45) scale(1,1)"><path fill="none" stroke="#000000" d="M 112 362 L 232 288 L 311 265" stroke-miterlimit="10"/></g><g transform="translate(-46,-45) scale(1,1)"><path fill="none" stroke="#000000" d="M 112 369 L 226 328 L 296 316" stroke-miterlimit="10"/></g><g transform="translate(-46,-45) scale(1,1)"><path fill="none" stroke="#000000" d="M 112 375 L 224 360 L 296 361" stroke-miterlimit="10"/></g><g transform="translate(-46,-45) scale(1,1)"><path fill="none" stroke="#000000" d="M 112 385 L 224 408 L 302 413" stroke-miterlimit="10"/></g><g transform="translate(-46,-45) scale(1,1)"><path fill="none" stroke="#000000" d="M 112 391 L 208 432 L 311 459" stroke-miterlimit="10"/></g><g transform="translate(-46,-45) scale(1,1)"><path fill="none" stroke="#000000" d="M 112 396 L 224 464 L 308 503" stroke-miterlimit="10"/></g><g transform="translate(-46,-45) scale(1,1)"><path fill="none" stroke="#000000" d="M 112 408 L 224 520 L 307 558" stroke-miterlimit="10"/></g><g transform="translate(-46,-45) scale(1,1)"><path fill="none" stroke="#000000" d="M 111 418 L 200 544 L 318 613" stroke-miterlimit="10"/></g><g transform="translate(-46,-45) scale(1,1)"><path fill="none" stroke="#000000" d="M 623 171 L 406 145" stroke-miterlimit="10"/></g><g transform="translate(-46,-45) scale(1,1)"><path fill="none" stroke="#000000" d="M 623 178 L 512 192 L 406 195" stroke-miterlimit="10"/></g><g transform="translate(-46,-45) scale(1,1)"><path fill="none" stroke="#000000" d="M 623 335 L 528 232 L 403 164" stroke-miterlimit="10"/></g><g transform="translate(-46,-45) scale(1,1)"><path fill="none" stroke="#000000" d="M 623 345 L 506 264 L 406 218" stroke-miterlimit="10"/></g></g></svg>