<svg version="1.1" xmlns="http://www.w3.org/2000/svg" xmlns:xlink="http://www.w3.org/1999/xlink" width="577.83203125" height="653"><defs/><g><text fill="#eeeeee" stroke="none" font-family="Arial" font-size="24px" font-style="normal" font-weight="normal" text-decoration="none" x="0" y="0">UNREGISTERED</text><text fill="#eeeeee" stroke="none" font-family="Arial" font-size="24px" font-style="normal" font-weight="normal" text-decoration="none" x="0" y="30">UNREGISTERED</text><text fill="#eeeeee" stroke="none" font-family="Arial" font-size="24px" font-style="normal" font-weight="normal" text-decoration="none" x="0" y="60">UNREGISTERED</text><text fill="#eeeeee" stroke="none" font-family="Arial" font-size="24px" font-style="normal" font-weight="normal" text-decoration="none" x="0" y="90">UNREGISTERED</text><text fill="#eeeeee" stroke="none" font-family="Arial" font-size="24px" font-style="normal" font-weight="normal" text-decoration="none" x="0" y="120">UNREGISTERED</text><text fill="#eeeeee" stroke="none" font-family="Arial" font-size="24px" font-style="normal" font-weight="normal" text-decoration="none" x="0" y="150">UNREGISTERED</text><text fill="#eeeeee" stroke="none" font-family="Arial" font-size="24px" font-style="normal" font-weight="normal" text-decoration="none" x="0" y="180">UNREGISTERED</text><text fill="#eeeeee" stroke="none" font-family="Arial" font-size="24px" font-style="normal" font-weight="normal" text-decoration="none" x="0" y="210">UNREGISTERED</text><text fill="#eeeeee" stroke="none" font-family="Arial" font-size="24px" font-style="normal" font-weight="normal" text-decoration="none" x="0" y="240">UNREGISTERED</text><text fill="#eeeeee" stroke="none" font-family="Arial" font-size="24px" font-style="normal" font-weight="normal" text-decoration="none" x="0" y="270">UNREGISTERED</text><text fill="#eeeeee" stroke="none" font-family="Arial" font-size="24px" font-style="normal" font-weight="normal" text-decoration="none" x="0" y="300">UNREGISTERED</text><text fill="#eeeeee" stroke="none" font-family="Arial" font-size="24px" font-style="normal" font-weight="normal" text-decoration="none" x="0" y="330">UNREGISTERED</text><text fill="#eeeeee" stroke="none" font-family="Arial" font-size="24px" font-style="normal" font-weight="normal" text-decoration="none" x="0" y="360">UNREGISTERED</text><text fill="#eeeeee" stroke="none" font-family="Arial" font-size="24px" font-style="normal" font-weight="normal" text-decoration="none" x="0" y="390">UNREGISTERED</text><text fill="#eeeeee" stroke="none" font-family="Arial" font-size="24px" font-style="normal" font-weight="normal" text-decoration="none" x="0" y="420">UNREGISTERED</text><text fill="#eeeeee" stroke="none" font-family="Arial" font-size="24px" font-style="normal" font-weight="normal" text-decoration="none" x="0" y="450">UNREGISTERED</text><text fill="#eeeeee" stroke="none" font-family="Arial" font-size="24px" font-style="normal" font-weight="normal" text-decoration="none" x="0" y="480">UNREGISTERED</text><text fill="#eeeeee" stroke="none" font-family="Arial" font-size="24px" font-style="normal" font-weight="normal" text-decoration="none" x="0" y="510">UNREGISTERED</text><text fill="#eeeeee" stroke="none" font-family="Arial" font-size="24px" font-style="normal" font-weight="normal" text-decoration="none" x="0" y="540">UNREGISTERED</text><text fill="#eeeeee" stroke="none" font-family="Arial" font-size="24px" font-style="normal" font-weight="normal" text-decoration="none" x="0" y="570">UNREGISTERED</text><text fill="#eeeeee" stroke="none" font-family="Arial" font-size="24px" font-style="normal" font-weight="normal" text-decoration="none" x="0" y="600">UNREGISTERED</text><text fill="#eeeeee" stroke="none" font-family="Arial" font-size="24px" font-style="normal" font-weight="normal" text-decoration="none" x="0" y="630">UNREGISTERED</text><text fill="#eeeeee" stroke="none" font-family="Arial" font-size="24px" font-style="normal" font-weight="normal" text-decoration="none" x="200" y="0">UNREGISTERED</text><text fill="#eeeeee" stroke="none" font-family="Arial" font-size="24px" font-style="normal" font-weight="normal" text-decoration="none" x="200" y="30">UNREGISTERED</text><text fill="#eeeeee" stroke="none" font-family="Arial" font-size="24px" font-style="normal" font-weight="normal" text-decoration="none" x="200" y="60">UNREGISTERED</text><text fill="#eeeeee" stroke="none" font-family="Arial" font-size="24px" font-style="normal" font-weight="normal" text-decoration="none" x="200" y="90">UNREGISTERED</text><text fill="#eeeeee" stroke="none" font-family="Arial" font-size="24px" font-style="normal" font-weight="normal" text-decoration="none" x="200" y="120">UNREGISTERED</text><text fill="#eeeeee" stroke="none" font-family="Arial" font-size="24px" font-style="normal" font-weight="normal" text-decoration="none" x="200" y="150">UNREGISTERED</text><text fill="#eeeeee" stroke="none" font-family="Arial" font-size="24px" font-style="normal" font-weight="normal" text-decoration="none" x="200" y="180">UNREGISTERED</text><text fill="#eeeeee" stroke="none" font-family="Arial" font-size="24px" font-style="normal" font-weight="normal" text-decoration="none" x="200" y="210">UNREGISTERED</text><text fill="#eeeeee" stroke="none" font-family="Arial" font-size="24px" font-style="normal" font-weight="normal" text-decoration="none" x="200" y="240">UNREGISTERED</text><text fill="#eeeeee" stroke="none" font-family="Arial" font-size="24px" font-style="normal" font-weight="normal" text-decoration="none" x="200" y="270">UNREGISTERED</text><text fill="#eeeeee" stroke="none" font-family="Arial" font-size="24px" font-style="normal" font-weight="normal" text-decoration="none" x="200" y="300">UNREGISTERED</text><text fill="#eeeeee" stroke="none" font-family="Arial" font-size="24px" font-style="normal" font-weight="normal" text-decoration="none" x="200" y="330">UNREGISTERED</text><text fill="#eeeeee" stroke="none" font-family="Arial" font-size="24px" font-style="normal" font-weight="normal" text-decoration="none" x="200" y="360">UNREGISTERED</text><text fill="#eeeeee" stroke="none" font-family="Arial" font-size="24px" font-style="normal" font-weight="normal" text-decoration="none" x="200" y="390">UNREGISTERED</text><text fill="#eeeeee" stroke="none" font-family="Arial" font-size="24px" font-style="normal" font-weight="normal" text-decoration="none" x="200" y="420">UNREGISTERED</text><text fill="#eeeeee" stroke="none" font-family="Arial" font-size="24px" font-style="normal" font-weight="normal" text-decoration="none" x="200" y="450">UNREGISTERED</text><text fill="#eeeeee" stroke="none" font-family="Arial" font-size="24px" font-style="normal" font-weight="normal" text-decoration="none" x="200" y="480">UNREGISTERED</text><text fill="#eeeeee" stroke="none" font-family="Arial" font-size="24px" font-style="normal" font-weight="normal" text-decoration="none" x="200" y="510">UNREGISTERED</text><text fill="#eeeeee" stroke="none" font-family="Arial" font-size="24px" font-style="normal" font-weight="normal" text-decoration="none" x="200" y="540">UNREGISTERED</text><text fill="#eeeeee" stroke="none" font-family="Arial" font-size="24px" font-style="normal" font-weight="normal" text-decoration="none" x="200" y="570">UNREGISTERED</text><text fill="#eeeeee" stroke="none" font-family="Arial" font-size="24px" font-style="normal" font-weight="normal" text-decoration="none" x="200" y="600">UNREGISTERED</text><text fill="#eeeeee" stroke="none" font-family="Arial" font-size="24px" font-style="normal" font-weight="normal" text-decoration="none" x="200" y="630">UNREGISTERED</text><text fill="#eeeeee" stroke="none" font-family="Arial" font-size="24px" font-style="normal" font-weight="normal" text-decoration="none" x="400" y="0">UNREGISTERED</text><text fill="#eeeeee" stroke="none" font-family="Arial" font-size="24px" font-style="normal" font-weight="normal" text-decoration="none" x="400" y="30">UNREGISTERED</text><text fill="#eeeeee" stroke="none" font-family="Arial" font-size="24px" font-style="normal" font-weight="normal" text-decoration="none" x="400" y="60">UNREGISTERED</text><text fill="#eeeeee" stroke="none" font-family="Arial" font-size="24px" font-style="normal" font-weight="normal" text-decoration="none" x="400" y="90">UNREGISTERED</text><text fill="#eeeeee" stroke="none" font-family="Arial" font-size="24px" font-style="normal" font-weight="normal" text-decoration="none" x="400" y="120">UNREGISTERED</text><text fill="#eeeeee" stroke="none" font-family="Arial" font-size="24px" font-style="normal" font-weight="normal" text-decoration="none" x="400" y="150">UNREGISTERED</text><text fill="#eeeeee" stroke="none" font-family="Arial" font-size="24px" font-style="normal" font-weight="normal" text-decoration="none" x="400" y="180">UNREGISTERED</text><text fill="#eeeeee" stroke="none" font-family="Arial" font-size="24px" font-style="normal" font-weight="normal" text-decoration="none" x="400" y="210">UNREGISTERED</text><text fill="#eeeeee" stroke="none" font-family="Arial" font-size="24px" font-style="normal" font-weight="normal" text-decoration="none" x="400" y="240">UNREGISTERED</text><text fill="#eeeeee" stroke="none" font-family="Arial" font-size="24px" font-style="normal" font-weight="normal" text-decoration="none" x="400" y="270">UNREGISTERED</text><text fill="#eeeeee" stroke="none" font-family="Arial" font-size="24px" font-style="normal" font-weight="normal" text-decoration="none" x="400" y="300">UNREGISTERED</text><text fill="#eeeeee" stroke="none" font-family="Arial" font-size="24px" font-style="normal" font-weight="normal" text-decoration="none" x="400" y="330">UNREGISTERED</text><text fill="#eeeeee" stroke="none" font-family="Arial" font-size="24px" font-style="normal" font-weight="normal" text-decoration="none" x="400" y="360">UNREGISTERED</text><text fill="#eeeeee" stroke="none" font-family="Arial" font-size="24px" font-style="normal" font-weight="normal" text-decoration="none" x="400" y="390">UNREGISTERED</text><text fill="#eeeeee" stroke="none" font-family="Arial" font-size="24px" font-style="normal" font-weight="normal" text-decoration="none" x="400" y="420">UNREGISTERED</text><text fill="#eeeeee" stroke="none" font-family="Arial" font-size="24px" font-style="normal" font-weight="normal" text-decoration="none" x="400" y="450">UNREGISTERED</text><text fill="#eeeeee" stroke="none" font-family="Arial" font-size="24px" font-style="normal" font-weight="normal" text-decoration="none" x="400" y="480">UNREGISTERED</text><text fill="#eeeeee" stroke="none" font-family="Arial" font-size="24px" font-style="normal" font-weight="normal" text-decoration="none" x="400" y="510">UNREGISTERED</text><text fill="#eeeeee" stroke="none" font-family="Arial" font-size="24px" font-style="normal" font-weight="normal" text-decoration="none" x="400" y="540">UNREGISTERED</text><text fill="#eeeeee" stroke="none" font-family="Arial" font-size="24px" font-style="normal" font-weight="normal" text-decoration="none" x="400" y="570">UNREGISTERED</text><text fill="#eeeeee" stroke="none" font-family="Arial" font-size="24px" font-style="normal" font-weight="normal" text-decoration="none" x="400" y="600">UNREGISTERED</text><text fill="#eeeeee" stroke="none" font-family="Arial" font-size="24px" font-style="normal" font-weight="normal" text-decoration="none" x="400" y="630">UNREGISTERED</text><g transform="translate(-14,-34) scale(1,1)"><rect fill="#C0C0C0" stroke="none" x="40" y="51" width="117.388671875" height="111" opacity="0.2"/></g><g transform="translate(-14,-34) scale(1,1)"><rect fill="#ffffff" stroke="none" x="33" y="44" width="117.388671875" height="111"/></g><g transform="translate(-14,-34) scale(1,1)"><path fill="none" stroke="#000000" d="M 33 44 L 150.388671875 44 L 150.388671875 155 L 33 155 L 33 44 Z Z" stroke-miterlimit="10"/></g><g transform="translate(-14,-34) scale(1,1)"><path fill="none" stroke="#000000" d="M 33 66 L 150.388671875 66" stroke-miterlimit="10"/></g><g transform="translate(-14,-34) scale(1,1)"><path fill="none" stroke="#000000" d="M 33 146 L 150.388671875 146" stroke-miterlimit="10"/></g><g transform="translate(-14,-34) scale(1,1)"><g><path fill="none" stroke="none"/><text fill="#000000" stroke="none" font-family="Arial" font-size="10px" font-style="normal" font-weight="bold" text-decoration="none" x="73.07861328125" y="59">Usuario</text></g></g><g transform="translate(-14,-34) scale(1,1)"><g><path fill="none" stroke="none"/><text fill="#000000" stroke="none" font-family="Arial" font-size="10px" font-style="normal" font-weight="normal" text-decoration="none" x="38" y="79">-rolCod: Int</text></g></g><g transform="translate(-14,-34) scale(1,1)"><g><path fill="none" stroke="none"/><text fill="#000000" stroke="none" font-family="Arial" font-size="10px" font-style="normal" font-weight="normal" text-decoration="none" x="38" y="91">-rolNombre: String</text></g></g><g transform="translate(-14,-34) scale(1,1)"><g><path fill="none" stroke="none"/><text fill="#000000" stroke="none" font-family="Arial" font-size="10px" font-style="normal" font-weight="normal" text-decoration="none" x="38" y="103">-usuarioCod: String</text></g></g><g transform="translate(-14,-34) scale(1,1)"><g><path fill="none" stroke="none"/><text fill="#000000" stroke="none" font-family="Arial" font-size="10px" font-style="normal" font-weight="normal" text-decoration="none" x="38" y="115">-usuarioNombre: String</text></g></g><g transform="translate(-14,-34) scale(1,1)"><g><path fill="none" stroke="none"/><text fill="#000000" stroke="none" font-family="Arial" font-size="10px" font-style="normal" font-weight="normal" text-decoration="none" x="38" y="127">-usuarioApellidos: String</text></g></g><g transform="translate(-14,-34) scale(1,1)"><g><path fill="none" stroke="none"/><text fill="#000000" stroke="none" font-family="Arial" font-size="10px" font-style="normal" font-weight="normal" text-decoration="none" x="38" y="139">-usuarioEmail: String</text></g></g><g transform="translate(-14,-34) scale(1,1)"><rect fill="#C0C0C0" stroke="none" x="225" y="57" width="147.9599609375" height="99" opacity="0.2"/></g><g transform="translate(-14,-34) scale(1,1)"><rect fill="#ffffff" stroke="none" x="218" y="50" width="147.9599609375" height="99"/></g><g transform="translate(-14,-34) scale(1,1)"><path fill="none" stroke="#000000" d="M 218 50 L 365.9599609375 50 L 365.9599609375 149 L 218 149 L 218 50 Z Z" stroke-miterlimit="10"/></g><g transform="translate(-14,-34) scale(1,1)"><path fill="none" stroke="#000000" d="M 218 72 L 365.9599609375 72" stroke-miterlimit="10"/></g><g transform="translate(-14,-34) scale(1,1)"><path fill="none" stroke="#000000" d="M 218 140 L 365.9599609375 140" stroke-miterlimit="10"/></g><g transform="translate(-14,-34) scale(1,1)"><g><path fill="none" stroke="none"/><text fill="#000000" stroke="none" font-family="Arial" font-size="10px" font-style="normal" font-weight="bold" text-decoration="none" x="266.41357421875" y="65">Credencial</text></g></g><g transform="translate(-14,-34) scale(1,1)"><g><path fill="none" stroke="none"/><text fill="#000000" stroke="none" font-family="Arial" font-size="10px" font-style="normal" font-weight="normal" text-decoration="none" x="223" y="85">-credencialFoto: String</text></g></g><g transform="translate(-14,-34) scale(1,1)"><g><path fill="none" stroke="none"/><text fill="#000000" stroke="none" font-family="Arial" font-size="10px" font-style="normal" font-weight="normal" text-decoration="none" x="223" y="97">-credencialIdentificacion: String</text></g></g><g transform="translate(-14,-34) scale(1,1)"><g><path fill="none" stroke="none"/><text fill="#000000" stroke="none" font-family="Arial" font-size="10px" font-style="normal" font-weight="normal" text-decoration="none" x="223" y="109">-credencialFechaIngreso: Date</text></g></g><g transform="translate(-14,-34) scale(1,1)"><g><path fill="none" stroke="none"/><text fill="#000000" stroke="none" font-family="Arial" font-size="10px" font-style="normal" font-weight="normal" text-decoration="none" x="223" y="121.5">-credencialContraseña: String</text></g></g><g transform="translate(-14,-34) scale(1,1)"><g><path fill="none" stroke="none"/><text fill="#000000" stroke="none" font-family="Arial" font-size="10px" font-style="normal" font-weight="normal" text-decoration="none" x="223" y="133">-credencialEstado: Boolean</text></g></g><g transform="translate(-14,-34) scale(1,1)"><rect fill="#C0C0C0" stroke="none" x="238" y="311" width="125.181640625" height="171" opacity="0.2"/></g><g transform="translate(-14,-34) scale(1,1)"><rect fill="#ffffff" stroke="none" x="231" y="304" width="125.181640625" height="171"/></g><g transform="translate(-14,-34) scale(1,1)"><path fill="none" stroke="#000000" d="M 231 304 L 356.181640625 304 L 356.181640625 475 L 231 475 L 231 304 Z Z" stroke-miterlimit="10"/></g><g transform="translate(-14,-34) scale(1,1)"><path fill="none" stroke="#000000" d="M 231 326 L 356.181640625 326" stroke-miterlimit="10"/></g><g transform="translate(-14,-34) scale(1,1)"><path fill="none" stroke="#000000" d="M 231 466 L 356.181640625 466" stroke-miterlimit="10"/></g><g transform="translate(-14,-34) scale(1,1)"><g><path fill="none" stroke="none"/><text fill="#000000" stroke="none" font-family="Arial" font-size="10px" font-style="normal" font-weight="bold" text-decoration="none" x="276.92333984375" y="319">Pedido</text></g></g><g transform="translate(-14,-34) scale(1,1)"><g><path fill="none" stroke="none"/><text fill="#000000" stroke="none" font-family="Arial" font-size="10px" font-style="normal" font-weight="normal" text-decoration="none" x="236" y="339">-pedidoCod: String</text></g></g><g transform="translate(-14,-34) scale(1,1)"><g><path fill="none" stroke="none"/><text fill="#000000" stroke="none" font-family="Arial" font-size="10px" font-style="normal" font-weight="normal" text-decoration="none" x="236" y="351">-clienteCod: String</text></g></g><g transform="translate(-14,-34) scale(1,1)"><g><path fill="none" stroke="none"/><text fill="#000000" stroke="none" font-family="Arial" font-size="10px" font-style="normal" font-weight="normal" text-decoration="none" x="236" y="363">-vendedorCod: String</text></g></g><g transform="translate(-14,-34) scale(1,1)"><g><path fill="none" stroke="none"/><text fill="#000000" stroke="none" font-family="Arial" font-size="10px" font-style="normal" font-weight="normal" text-decoration="none" x="236" y="375">-pedidoFecha: Date</text></g></g><g transform="translate(-14,-34) scale(1,1)"><g><path fill="none" stroke="none"/><text fill="#000000" stroke="none" font-family="Arial" font-size="10px" font-style="normal" font-weight="normal" text-decoration="none" x="236" y="387">-pedidoCiudad: String</text></g></g><g transform="translate(-14,-34) scale(1,1)"><g><path fill="none" stroke="none"/><text fill="#000000" stroke="none" font-family="Arial" font-size="10px" font-style="normal" font-weight="normal" text-decoration="none" x="236" y="399.5">-pedidoDirección: String</text></g></g><g transform="translate(-14,-34) scale(1,1)"><g><path fill="none" stroke="none"/><text fill="#000000" stroke="none" font-family="Arial" font-size="10px" font-style="normal" font-weight="normal" text-decoration="none" x="236" y="411">-pedidoCantProductos: Int</text></g></g><g transform="translate(-14,-34) scale(1,1)"><g><path fill="none" stroke="none"/><text fill="#000000" stroke="none" font-family="Arial" font-size="10px" font-style="normal" font-weight="normal" text-decoration="none" x="236" y="423">-pedidoParcial: Float</text></g></g><g transform="translate(-14,-34) scale(1,1)"><g><path fill="none" stroke="none"/><text fill="#000000" stroke="none" font-family="Arial" font-size="10px" font-style="normal" font-weight="normal" text-decoration="none" x="236" y="435">-pedidoIva: Float</text></g></g><g transform="translate(-14,-34) scale(1,1)"><g><path fill="none" stroke="none"/><text fill="#000000" stroke="none" font-family="Arial" font-size="10px" font-style="normal" font-weight="normal" text-decoration="none" x="236" y="447">-pedidoTotal: Float</text></g></g><g transform="translate(-14,-34) scale(1,1)"><g><path fill="none" stroke="none"/><text fill="#000000" stroke="none" font-family="Arial" font-size="10px" font-style="normal" font-weight="normal" text-decoration="none" x="236" y="459">-pedidoEstado: String</text></g></g><g transform="translate(-14,-34) scale(1,1)"><rect fill="#C0C0C0" stroke="none" x="238" y="549" width="120.7138671875" height="135" opacity="0.2"/></g><g transform="translate(-14,-34) scale(1,1)"><rect fill="#ffffff" stroke="none" x="231" y="542" width="120.7138671875" height="135"/></g><g transform="translate(-14,-34) scale(1,1)"><path fill="none" stroke="#000000" d="M 231 542 L 351.7138671875 542 L 351.7138671875 677 L 231 677 L 231 542 Z Z" stroke-miterlimit="10"/></g><g transform="translate(-14,-34) scale(1,1)"><path fill="none" stroke="#000000" d="M 231 564 L 351.7138671875 564" stroke-miterlimit="10"/></g><g transform="translate(-14,-34) scale(1,1)"><path fill="none" stroke="#000000" d="M 231 668 L 351.7138671875 668" stroke-miterlimit="10"/></g><g transform="translate(-14,-34) scale(1,1)"><g><path fill="none" stroke="none"/><text fill="#000000" stroke="none" font-family="Arial" font-size="10px" font-style="normal" font-weight="bold" text-decoration="none" x="269.41357421875" y="557">Producto</text></g></g><g transform="translate(-14,-34) scale(1,1)"><g><path fill="none" stroke="none"/><text fill="#000000" stroke="none" font-family="Arial" font-size="10px" font-style="normal" font-weight="normal" text-decoration="none" x="236" y="577">-categoriaCod: Int</text></g></g><g transform="translate(-14,-34) scale(1,1)"><g><path fill="none" stroke="none"/><text fill="#000000" stroke="none" font-family="Arial" font-size="10px" font-style="normal" font-weight="normal" text-decoration="none" x="236" y="589">-categoriaNombre: String</text></g></g><g transform="translate(-14,-34) scale(1,1)"><g><path fill="none" stroke="none"/><text fill="#000000" stroke="none" font-family="Arial" font-size="10px" font-style="normal" font-weight="normal" text-decoration="none" x="236" y="601">-productoCod: String</text></g></g><g transform="translate(-14,-34) scale(1,1)"><g><path fill="none" stroke="none"/><text fill="#000000" stroke="none" font-family="Arial" font-size="10px" font-style="normal" font-weight="normal" text-decoration="none" x="236" y="613">-productoNombre: String</text></g></g><g transform="translate(-14,-34) scale(1,1)"><g><path fill="none" stroke="none"/><text fill="#000000" stroke="none" font-family="Arial" font-size="10px" font-style="normal" font-weight="normal" text-decoration="none" x="236" y="625">-productoPrecio: Float</text></g></g><g transform="translate(-14,-34) scale(1,1)"><g><path fill="none" stroke="none"/><text fill="#000000" stroke="none" font-family="Arial" font-size="10px" font-style="normal" font-weight="normal" text-decoration="none" x="236" y="637">-productoUnidad: Float</text></g></g><g transform="translate(-14,-34) scale(1,1)"><g><path fill="none" stroke="none"/><text fill="#000000" stroke="none" font-family="Arial" font-size="10px" font-style="normal" font-weight="normal" text-decoration="none" x="236" y="649">-productoMedida: String</text></g></g><g transform="translate(-14,-34) scale(1,1)"><g><path fill="none" stroke="none"/><text fill="#000000" stroke="none" font-family="Arial" font-size="10px" font-style="normal" font-weight="normal" text-decoration="none" x="236" y="661">-productoStock: Int</text></g></g><g transform="translate(-14,-34) scale(1,1)"><rect fill="#C0C0C0" stroke="none" x="447" y="555" width="141.83203125" height="123" opacity="0.2"/></g><g transform="translate(-14,-34) scale(1,1)"><rect fill="#ffffff" stroke="none" x="440" y="548" width="141.83203125" height="123"/></g><g transform="translate(-14,-34) scale(1,1)"><path fill="none" stroke="#000000" d="M 440 548 L 581.83203125 548 L 581.83203125 671 L 440 671 L 440 548 Z Z" stroke-miterlimit="10"/></g><g transform="translate(-14,-34) scale(1,1)"><path fill="none" stroke="#000000" d="M 440 570 L 581.83203125 570" stroke-miterlimit="10"/></g><g transform="translate(-14,-34) scale(1,1)"><path fill="none" stroke="#000000" d="M 440 662 L 581.83203125 662" stroke-miterlimit="10"/></g><g transform="translate(-14,-34) scale(1,1)"><g><path fill="none" stroke="none"/><text fill="#000000" stroke="none" font-family="Arial" font-size="10px" font-style="normal" font-weight="bold" text-decoration="none" x="492.0244140625" y="563">Compra</text></g></g><g transform="translate(-14,-34) scale(1,1)"><g><path fill="none" stroke="none"/><text fill="#000000" stroke="none" font-family="Arial" font-size="10px" font-style="normal" font-weight="normal" text-decoration="none" x="445" y="583">-compraCod: String</text></g></g><g transform="translate(-14,-34) scale(1,1)"><g><path fill="none" stroke="none"/><text fill="#000000" stroke="none" font-family="Arial" font-size="10px" font-style="normal" font-weight="normal" text-decoration="none" x="445" y="595">-compraFecha: Date</text></g></g><g transform="translate(-14,-34) scale(1,1)"><g><path fill="none" stroke="none"/><text fill="#000000" stroke="none" font-family="Arial" font-size="10px" font-style="normal" font-weight="normal" text-decoration="none" x="445" y="607">-compraPrecioProducto: Float</text></g></g><g transform="translate(-14,-34) scale(1,1)"><g><path fill="none" stroke="none"/><text fill="#000000" stroke="none" font-family="Arial" font-size="10px" font-style="normal" font-weight="normal" text-decoration="none" x="445" y="619">-compraCantProductos: Int</text></g></g><g transform="translate(-14,-34) scale(1,1)"><g><path fill="none" stroke="none"/><text fill="#000000" stroke="none" font-family="Arial" font-size="10px" font-style="normal" font-weight="normal" text-decoration="none" x="445" y="631">-compraIva: Float</text></g></g><g transform="translate(-14,-34) scale(1,1)"><g><path fill="none" stroke="none"/><text fill="#000000" stroke="none" font-family="Arial" font-size="10px" font-style="normal" font-weight="normal" text-decoration="none" x="445" y="643">-compraTotal: Float</text></g></g><g transform="translate(-14,-34) scale(1,1)"><g><path fill="none" stroke="none"/><text fill="#000000" stroke="none" font-family="Arial" font-size="10px" font-style="normal" font-weight="normal" text-decoration="none" x="445" y="655">-compraFactura: String</text></g></g><g transform="translate(-14,-34) scale(1,1)"><rect fill="#C0C0C0" stroke="none" x="335" y="207" width="145.728515625" height="51" opacity="0.2"/></g><g transform="translate(-14,-34) scale(1,1)"><rect fill="#ffffff" stroke="none" x="328" y="200" width="145.728515625" height="51"/></g><g transform="translate(-14,-34) scale(1,1)"><path fill="none" stroke="#000000" d="M 328 200 L 473.728515625 200 L 473.728515625 251 L 328 251 L 328 200 Z Z" stroke-miterlimit="10"/></g><g transform="translate(-14,-34) scale(1,1)"><path fill="none" stroke="#000000" d="M 328 222 L 473.728515625 222" stroke-miterlimit="10"/></g><g transform="translate(-14,-34) scale(1,1)"><path fill="none" stroke="#000000" d="M 328 242 L 473.728515625 242" stroke-miterlimit="10"/></g><g transform="translate(-14,-34) scale(1,1)"><g><path fill="none" stroke="none"/><text fill="#000000" stroke="none" font-family="Arial" font-size="10px" font-style="normal" font-weight="bold" text-decoration="none" x="384.1943359375" y="215">Cliente</text></g></g><g transform="translate(-14,-34) scale(1,1)"><g><path fill="none" stroke="none"/><text fill="#000000" stroke="none" font-family="Arial" font-size="10px" font-style="normal" font-weight="normal" text-decoration="none" x="333" y="235">-clienteFechaNacimiento: Date</text></g></g><g transform="translate(-14,-34) scale(1,1)"><rect fill="#C0C0C0" stroke="none" x="151" y="207" width="112.9453125" height="51" opacity="0.2"/></g><g transform="translate(-14,-34) scale(1,1)"><rect fill="#ffffff" stroke="none" x="144" y="200" width="112.9453125" height="51"/></g><g transform="translate(-14,-34) scale(1,1)"><path fill="none" stroke="#000000" d="M 144 200 L 256.9453125 200 L 256.9453125 251 L 144 251 L 144 200 Z Z" stroke-miterlimit="10"/></g><g transform="translate(-14,-34) scale(1,1)"><path fill="none" stroke="#000000" d="M 144 222 L 256.9453125 222" stroke-miterlimit="10"/></g><g transform="translate(-14,-34) scale(1,1)"><path fill="none" stroke="#000000" d="M 144 242 L 256.9453125 242" stroke-miterlimit="10"/></g><g transform="translate(-14,-34) scale(1,1)"><g><path fill="none" stroke="none"/><text fill="#000000" stroke="none" font-family="Arial" font-size="10px" font-style="normal" font-weight="bold" text-decoration="none" x="177.689453125" y="215">Vendedor</text></g></g><g transform="translate(-14,-34) scale(1,1)"><g><path fill="none" stroke="none"/><text fill="#000000" stroke="none" font-family="Arial" font-size="10px" font-style="normal" font-weight="normal" text-decoration="none" x="149" y="235">-vendedorSalario: Float</text></g></g><g transform="translate(-14,-34) scale(1,1)"><rect fill="#C0C0C0" stroke="none" x="31" y="319" width="134.048828125" height="87" opacity="0.2"/></g><g transform="translate(-14,-34) scale(1,1)"><rect fill="#ffffff" stroke="none" x="24" y="312" width="134.048828125" height="87"/></g><g transform="translate(-14,-34) scale(1,1)"><path fill="none" stroke="#000000" d="M 24 312 L 158.048828125 312 L 158.048828125 399 L 24 399 L 24 312 Z Z" stroke-miterlimit="10"/></g><g transform="translate(-14,-34) scale(1,1)"><path fill="none" stroke="#000000" d="M 24 334 L 158.048828125 334" stroke-miterlimit="10"/></g><g transform="translate(-14,-34) scale(1,1)"><path fill="none" stroke="#000000" d="M 24 390 L 158.048828125 390" stroke-miterlimit="10"/></g><g transform="translate(-14,-34) scale(1,1)"><g><path fill="none" stroke="none"/><text fill="#000000" stroke="none" font-family="Arial" font-size="10px" font-style="normal" font-weight="bold" text-decoration="none" x="71.29296875" y="327">Mensaje</text></g></g><g transform="translate(-14,-34) scale(1,1)"><g><path fill="none" stroke="none"/><text fill="#000000" stroke="none" font-family="Arial" font-size="10px" font-style="normal" font-weight="normal" text-decoration="none" x="29" y="347">-usuarioCod: String</text></g></g><g transform="translate(-14,-34) scale(1,1)"><g><path fill="none" stroke="none"/><text fill="#000000" stroke="none" font-family="Arial" font-size="10px" font-style="normal" font-weight="normal" text-decoration="none" x="29" y="359">-mensajeFecha: Date</text></g></g><g transform="translate(-14,-34) scale(1,1)"><g><path fill="none" stroke="none"/><text fill="#000000" stroke="none" font-family="Arial" font-size="10px" font-style="normal" font-weight="normal" text-decoration="none" x="29" y="371">-mensajeAsunto: String</text></g></g><g transform="translate(-14,-34) scale(1,1)"><g><path fill="none" stroke="none"/><text fill="#000000" stroke="none" font-family="Arial" font-size="10px" font-style="normal" font-weight="normal" text-decoration="none" x="29" y="383.5">-mensajeDescripción: String</text></g></g><g transform="translate(-14,-34) scale(1,1)"><path fill="none" stroke="#000000" d="M 217 99 L 151 99" stroke-miterlimit="10"/></g><g transform="translate(-14,-34) scale(1,1)"><path fill="#FFFFFF" stroke="none" d="M 171.3253497152483 90.58096448796803 L 151 99 L 171.3253497152483 107.41903551203197"/></g><g transform="translate(-14,-34) scale(1,1)"><path fill="none" stroke="#000000" d="M 171.3253497152483 90.58096448796803 L 151 99 L 171.3253497152483 107.41903551203197 L 171.3253497152483 90.58096448796803" stroke-miterlimit="10"/></g><g transform="translate(-14,-34) scale(1,1)"><path fill="none" stroke="#000000" d="M 219 199 L 254 150" stroke-miterlimit="10"/></g><g transform="translate(-14,-34) scale(1,1)"><path fill="#FFFFFF" stroke="none" d="M 249.03698143621867 171.4328823711502 L 254 150 L 235.3352794533816 161.64595238340945"/></g><g transform="translate(-14,-34) scale(1,1)"><path fill="none" stroke="#000000" d="M 249.03698143621867 171.4328823711502 L 254 150 L 235.3352794533816 161.64595238340945 L 249.03698143621867 171.4328823711502" stroke-miterlimit="10"/></g><g transform="translate(-14,-34) scale(1,1)"><path fill="none" stroke="#000000" d="M 378 199 L 335 150" stroke-miterlimit="10"/></g><g transform="translate(-14,-34) scale(1,1)"><path fill="#FFFFFF" stroke="none" d="M 354.7343585592393 159.72394427459238 L 335 150 L 342.07843182316054 170.83016569604928"/></g><g transform="translate(-14,-34) scale(1,1)"><path fill="none" stroke="#000000" d="M 354.7343585592393 159.72394427459238 L 335 150 L 342.07843182316054 170.83016569604928 L 354.7343585592393 159.72394427459238" stroke-miterlimit="10"/></g><g transform="translate(-14,-34) scale(1,1)"><path fill="none" stroke="#000000" d="M 91 311 L 91 156" stroke-miterlimit="10"/></g><g transform="translate(-14,-34) scale(1,1)"><path fill="#000000" stroke="none" d="M 95.20951775601598 166.16267485762415 L 91 156 L 86.79048224398402 166.16267485762415 L 91 178"/></g><g transform="translate(-14,-34) scale(1,1)"><path fill="none" stroke="#000000" d="M 95.20951775601598 166.16267485762415 L 91 156 L 86.79048224398402 166.16267485762415 L 91 178 L 95.20951775601598 166.16267485762415" stroke-miterlimit="10"/></g><g transform="translate(-14,-34) scale(1,1)"><g><path fill="none" stroke="none"/><text fill="#000000" stroke="none" font-family="Arial" font-size="10px" font-style="normal" font-weight="normal" text-decoration="none" x="95.5" y="303">0..*</text></g></g><g transform="translate(-14,-34) scale(1,1)"><g><path fill="none" stroke="none"/><text fill="#000000" stroke="none" font-family="Arial" font-size="10px" font-style="normal" font-weight="normal" text-decoration="none" x="71.5" y="175">1</text></g></g><g transform="translate(-14,-34) scale(1,1)"><path fill="none" stroke="#000000" d="M 349 303 L 382 252" stroke-miterlimit="10"/></g><g transform="translate(-14,-34) scale(1,1)"><path fill="#000000" stroke="none" d="M 380.013299378052 262.81910442868315 L 382 252 L 372.9449284101458 258.2454526259203 L 370.04847188054 270.47054345734733"/></g><g transform="translate(-14,-34) scale(1,1)"><path fill="none" stroke="#000000" d="M 380.013299378052 262.81910442868315 L 382 252 L 372.9449284101458 258.2454526259203 L 370.04847188054 270.47054345734733 L 380.013299378052 262.81910442868315" stroke-miterlimit="10"/></g><g transform="translate(-14,-34) scale(1,1)"><g><path fill="none" stroke="none"/><text fill="#000000" stroke="none" font-family="Arial" font-size="10px" font-style="normal" font-weight="normal" text-decoration="none" x="335.5" y="294">1..*</text></g></g><g transform="translate(-14,-34) scale(1,1)"><g><path fill="none" stroke="none"/><text fill="#000000" stroke="none" font-family="Arial" font-size="10px" font-style="normal" font-weight="normal" text-decoration="none" x="391.5" y="262">1</text></g></g><g transform="translate(-14,-34) scale(1,1)"><path fill="none" stroke="#000000" d="M 244 303 L 215 252" stroke-miterlimit="10"/></g><g transform="translate(-14,-34) scale(1,1)"><path fill="#FFFFFF" stroke="none" d="M 223.68272497963287 258.7535388447879 L 215 252 L 216.36414059811995 262.9150868264325 L 225.87464893874576 271.124382616415"/></g><g transform="translate(-14,-34) scale(1,1)"><path fill="none" stroke="#000000" d="M 223.68272497963287 258.7535388447879 L 215 252 L 216.36414059811995 262.9150868264325 L 225.87464893874576 271.124382616415 L 223.68272497963287 258.7535388447879" stroke-miterlimit="10"/></g><g transform="translate(-14,-34) scale(1,1)"><g><path fill="none" stroke="none"/><text fill="#000000" stroke="none" font-family="Arial" font-size="10px" font-style="normal" font-weight="normal" text-decoration="none" x="247.5" y="295">0..*</text></g></g><g transform="translate(-14,-34) scale(1,1)"><g><path fill="none" stroke="none"/><text fill="#000000" stroke="none" font-family="Arial" font-size="10px" font-style="normal" font-weight="normal" text-decoration="none" x="190.5" y="263">0..1</text></g></g><g transform="translate(-14,-34) scale(1,1)"><path fill="none" stroke="#000000" d="M 292 541 L 292 476" stroke-miterlimit="10"/></g><g transform="translate(-14,-34) scale(1,1)"><path fill="#FFFFFF" stroke="none" d="M 296.209517756016 486.16267485762415 L 292 476 L 287.790482243984 486.16267485762415 L 292 498"/></g><g transform="translate(-14,-34) scale(1,1)"><path fill="none" stroke="#000000" d="M 296.209517756016 486.16267485762415 L 292 476 L 287.790482243984 486.16267485762415 L 292 498 L 296.209517756016 486.16267485762415" stroke-miterlimit="10"/></g><g transform="translate(-14,-34) scale(1,1)"><g><path fill="none" stroke="none"/><text fill="#000000" stroke="none" font-family="Arial" font-size="10px" font-style="normal" font-weight="normal" text-decoration="none" x="295.5" y="535">1..*</text></g></g><g transform="translate(-14,-34) scale(1,1)"><g><path fill="none" stroke="none"/><text fill="#000000" stroke="none" font-family="Arial" font-size="10px" font-style="normal" font-weight="normal" text-decoration="none" x="263.5" y="487">0..*</text></g></g><g transform="translate(-14,-34) scale(1,1)"><path fill="none" stroke="#000000" d="M 353 609 L 439 609" stroke-miterlimit="10"/></g><g transform="translate(-14,-34) scale(1,1)"><path fill="#FFFFFF" stroke="none" d="M 428.83732514237585 613.209517756016 L 439 609 L 428.83732514237585 604.790482243984 L 417 609"/></g><g transform="translate(-14,-34) scale(1,1)"><path fill="none" stroke="#000000" d="M 428.83732514237585 613.209517756016 L 439 609 L 428.83732514237585 604.790482243984 L 417 609 L 428.83732514237585 613.209517756016" stroke-miterlimit="10"/></g><g transform="translate(-14,-34) scale(1,1)"><g><path fill="none" stroke="none"/><text fill="#000000" stroke="none" font-family="Arial" font-size="10px" font-style="normal" font-weight="normal" text-decoration="none" x="359.5" y="599">1..*</text></g></g><g transform="translate(-14,-34) scale(1,1)"><g><path fill="none" stroke="none"/><text fill="#000000" stroke="none" font-family="Arial" font-size="10px" font-style="normal" font-weight="normal" text-decoration="none" x="415.5" y="623">0..*</text></g></g></g></svg>